<mxfile host="65bd71144e">
    <diagram id="coi8QPT9wfNs4btPyHbb" name="Page-1">
        <mxGraphModel dx="1548" dy="922" grid="0" gridSize="10" guides="0" tooltips="1" connect="1" arrows="1" fold="1" page="1" pageScale="1" pageWidth="3300" pageHeight="4681" background="#ffffff" math="0" shadow="0">
            <root>
                <mxCell id="0"/>
                <mxCell id="1" parent="0"/>
                <mxCell id="2" value="" style="rounded=0;whiteSpace=wrap;html=1;fillColor=#bac8d3;strokeColor=#23445d;" parent="1" vertex="1">
                    <mxGeometry x="320" y="240" width="250" height="600" as="geometry"/>
                </mxCell>
                <mxCell id="3" value="" style="endArrow=classic;html=1;strokeColor=#1C1C1C;strokeWidth=2;" parent="1" edge="1">
                    <mxGeometry width="50" height="50" relative="1" as="geometry">
                        <mxPoint x="180" y="289" as="sourcePoint"/>
                        <mxPoint x="320" y="289" as="targetPoint"/>
                    </mxGeometry>
                </mxCell>
                <mxCell id="4" value="M/~S" style="text;html=1;strokeColor=none;fillColor=none;align=center;verticalAlign=middle;whiteSpace=wrap;rounded=0;fontColor=#303030;" parent="1" vertex="1">
                    <mxGeometry x="166" y="260" width="60" height="30" as="geometry"/>
                </mxCell>
                <mxCell id="5" value="" style="endArrow=classic;html=1;strokeColor=#1C1C1C;strokeWidth=2;" parent="1" edge="1">
                    <mxGeometry width="50" height="50" relative="1" as="geometry">
                        <mxPoint x="179" y="329" as="sourcePoint"/>
                        <mxPoint x="320" y="329" as="targetPoint"/>
                    </mxGeometry>
                </mxCell>
                <mxCell id="6" value="CLK" style="text;html=1;strokeColor=none;fillColor=none;align=center;verticalAlign=middle;whiteSpace=wrap;rounded=0;fontColor=#303030;" parent="1" vertex="1">
                    <mxGeometry x="161" y="299" width="60" height="30" as="geometry"/>
                </mxCell>
                <mxCell id="7" value="" style="endArrow=classic;html=1;strokeColor=#1C1C1C;strokeWidth=2;entryX=-0.003;entryY=0.217;entryDx=0;entryDy=0;entryPerimeter=0;" parent="1" target="2" edge="1">
                    <mxGeometry width="50" height="50" relative="1" as="geometry">
                        <mxPoint x="178" y="371" as="sourcePoint"/>
                        <mxPoint x="318" y="371" as="targetPoint"/>
                    </mxGeometry>
                </mxCell>
                <mxCell id="8" value="[7:0] P_DATA_IN" style="text;html=1;strokeColor=none;fillColor=none;align=center;verticalAlign=middle;whiteSpace=wrap;rounded=0;fontColor=#303030;" parent="1" vertex="1">
                    <mxGeometry x="178" y="341" width="100" height="30" as="geometry"/>
                </mxCell>
                <mxCell id="9" value="" style="endArrow=classic;html=1;strokeColor=#1C1C1C;strokeWidth=2;exitX=0;exitY=0.25;exitDx=0;exitDy=0;" parent="1" edge="1">
                    <mxGeometry width="50" height="50" relative="1" as="geometry">
                        <mxPoint x="319.9999999999998" y="419" as="sourcePoint"/>
                        <mxPoint x="177" y="419" as="targetPoint"/>
                    </mxGeometry>
                </mxCell>
                <mxCell id="10" value="[7:0]&amp;nbsp;P_DATA_OUT" style="text;html=1;strokeColor=none;fillColor=none;align=center;verticalAlign=middle;whiteSpace=wrap;rounded=0;fontColor=#303030;" parent="1" vertex="1">
                    <mxGeometry x="204" y="387" width="60" height="30" as="geometry"/>
                </mxCell>
                <mxCell id="16" value="~CS" style="text;html=1;strokeColor=none;fillColor=none;align=center;verticalAlign=middle;whiteSpace=wrap;rounded=0;fontColor=#303030;" parent="1" vertex="1">
                    <mxGeometry x="650" y="375" width="60" height="30" as="geometry"/>
                </mxCell>
                <mxCell id="17" value="" style="endArrow=classic;startArrow=classic;html=1;strokeColor=#1C1C1C;strokeWidth=2;fontColor=#303030;" parent="1" edge="1">
                    <mxGeometry width="50" height="50" relative="1" as="geometry">
                        <mxPoint x="570" y="405" as="sourcePoint"/>
                        <mxPoint x="720" y="405" as="targetPoint"/>
                    </mxGeometry>
                </mxCell>
                <mxCell id="22" value="" style="endArrow=classic;html=1;strokeColor=#1C1C1C;strokeWidth=2;entryX=-0.001;entryY=0.334;entryDx=0;entryDy=0;entryPerimeter=0;exitX=0.077;exitY=1.066;exitDx=0;exitDy=0;exitPerimeter=0;" parent="1" source="23" edge="1">
                    <mxGeometry width="50" height="50" relative="1" as="geometry">
                        <mxPoint x="174" y="468" as="sourcePoint"/>
                        <mxPoint x="319.7499999999998" y="469.4000000000001" as="targetPoint"/>
                        <Array as="points"/>
                    </mxGeometry>
                </mxCell>
                <mxCell id="23" value="RESET" style="text;html=1;strokeColor=none;fillColor=none;align=center;verticalAlign=middle;whiteSpace=wrap;rounded=0;fontColor=#303030;" parent="1" vertex="1">
                    <mxGeometry x="174" y="438" width="60" height="30" as="geometry"/>
                </mxCell>
                <mxCell id="24" value="" style="endArrow=classic;startArrow=classic;html=1;strokeColor=#1C1C1C;strokeWidth=2;fontColor=#303030;jumpStyle=none;exitX=1;exitY=0.373;exitDx=0;exitDy=0;exitPerimeter=0;" parent="1" source="2" edge="1">
                    <mxGeometry width="50" height="50" relative="1" as="geometry">
                        <mxPoint x="573" y="464" as="sourcePoint"/>
                        <mxPoint x="720" y="464" as="targetPoint"/>
                    </mxGeometry>
                </mxCell>
                <mxCell id="26" value="S_CLK" style="text;html=1;strokeColor=none;fillColor=none;align=center;verticalAlign=middle;whiteSpace=wrap;rounded=0;fontColor=#303030;" parent="1" vertex="1">
                    <mxGeometry x="650" y="430" width="60" height="30" as="geometry"/>
                </mxCell>
                <mxCell id="29" value="&lt;b&gt;&lt;font style=&quot;font-size: 28px;&quot;&gt;SPI INTERFACE&lt;/font&gt;&lt;/b&gt;" style="text;html=1;align=center;verticalAlign=middle;whiteSpace=wrap;rounded=0;rotation=90;" parent="1" vertex="1">
                    <mxGeometry x="307" y="477" width="269" height="30" as="geometry"/>
                </mxCell>
                <mxCell id="30" value="" style="endArrow=classic;html=1;strokeColor=#1C1C1C;strokeWidth=2;" parent="1" edge="1">
                    <mxGeometry width="50" height="50" relative="1" as="geometry">
                        <mxPoint x="570" y="290" as="sourcePoint"/>
                        <mxPoint x="720" y="290" as="targetPoint"/>
                    </mxGeometry>
                </mxCell>
                <mxCell id="31" value="MOSI" style="text;html=1;strokeColor=none;fillColor=none;align=center;verticalAlign=middle;whiteSpace=wrap;rounded=0;fontColor=#303030;" parent="1" vertex="1">
                    <mxGeometry x="646" y="257" width="60" height="30" as="geometry"/>
                </mxCell>
                <mxCell id="32" value="" style="endArrow=classic;html=1;strokeColor=#1C1C1C;strokeWidth=2;" parent="1" edge="1">
                    <mxGeometry width="50" height="50" relative="1" as="geometry">
                        <mxPoint x="720" y="342" as="sourcePoint"/>
                        <mxPoint x="570" y="342" as="targetPoint"/>
                    </mxGeometry>
                </mxCell>
                <mxCell id="33" value="MISO" style="text;html=1;strokeColor=none;fillColor=none;align=center;verticalAlign=middle;whiteSpace=wrap;rounded=0;fontColor=#303030;" parent="1" vertex="1">
                    <mxGeometry x="650" y="311" width="60" height="30" as="geometry"/>
                </mxCell>
                <mxCell id="34" value="" style="endArrow=classic;html=1;strokeColor=#1C1C1C;strokeWidth=2;" parent="1" edge="1">
                    <mxGeometry width="50" height="50" relative="1" as="geometry">
                        <mxPoint x="179" y="520" as="sourcePoint"/>
                        <mxPoint x="320" y="520" as="targetPoint"/>
                        <Array as="points"/>
                    </mxGeometry>
                </mxCell>
                <mxCell id="35" value="WRITE" style="text;html=1;strokeColor=none;fillColor=none;align=center;verticalAlign=middle;whiteSpace=wrap;rounded=0;fontColor=#303030;" parent="1" vertex="1">
                    <mxGeometry x="174" y="485" width="60" height="30" as="geometry"/>
                </mxCell>
                <mxCell id="36" value="[7:0]&amp;nbsp; CONTROL" style="text;html=1;strokeColor=none;fillColor=none;align=center;verticalAlign=middle;whiteSpace=wrap;rounded=0;fontColor=#303030;" parent="1" vertex="1">
                    <mxGeometry x="180" y="585" width="100" height="30" as="geometry"/>
                </mxCell>
                <mxCell id="37" value="" style="endArrow=classic;html=1;strokeColor=#1C1C1C;strokeWidth=2;entryX=-0.001;entryY=0.334;entryDx=0;entryDy=0;entryPerimeter=0;exitX=0.077;exitY=1.066;exitDx=0;exitDy=0;exitPerimeter=0;" parent="1" edge="1">
                    <mxGeometry width="50" height="50" relative="1" as="geometry">
                        <mxPoint x="180" y="615.58" as="sourcePoint"/>
                        <mxPoint x="321.12999999999977" y="615.0000000000001" as="targetPoint"/>
                        <Array as="points"/>
                    </mxGeometry>
                </mxCell>
                <mxCell id="38" value="[7:0] STATUS" style="text;html=1;strokeColor=none;fillColor=none;align=center;verticalAlign=middle;whiteSpace=wrap;rounded=0;fontColor=#303030;" parent="1" vertex="1">
                    <mxGeometry x="180" y="635" width="85" height="30" as="geometry"/>
                </mxCell>
                <mxCell id="40" value="" style="endArrow=classic;html=1;strokeColor=#1C1C1C;strokeWidth=2;" parent="1" edge="1">
                    <mxGeometry width="50" height="50" relative="1" as="geometry">
                        <mxPoint x="320" y="665" as="sourcePoint"/>
                        <mxPoint x="180.0000000000001" y="665.0000000000001" as="targetPoint"/>
                    </mxGeometry>
                </mxCell>
                <mxCell id="41" value="" style="endArrow=classic;html=1;strokeColor=#1C1C1C;strokeWidth=2;" parent="1" edge="1">
                    <mxGeometry width="50" height="50" relative="1" as="geometry">
                        <mxPoint x="179" y="568" as="sourcePoint"/>
                        <mxPoint x="320" y="568" as="targetPoint"/>
                        <Array as="points"/>
                    </mxGeometry>
                </mxCell>
                <mxCell id="42" value="READ" style="text;html=1;strokeColor=none;fillColor=none;align=center;verticalAlign=middle;whiteSpace=wrap;rounded=0;fontColor=#303030;" parent="1" vertex="1">
                    <mxGeometry x="174" y="533" width="60" height="30" as="geometry"/>
                </mxCell>
                <mxCell id="43" value="" style="endArrow=classic;html=1;strokeColor=#1C1C1C;strokeWidth=2;" parent="1" edge="1">
                    <mxGeometry width="50" height="50" relative="1" as="geometry">
                        <mxPoint x="52" y="144" as="sourcePoint"/>
                        <mxPoint x="192" y="144" as="targetPoint"/>
                    </mxGeometry>
                </mxCell>
                <mxCell id="44" value="" style="endArrow=classic;html=1;strokeColor=#1C1C1C;strokeWidth=2;" parent="1" edge="1">
                    <mxGeometry width="50" height="50" relative="1" as="geometry">
                        <mxPoint x="188.00000000000023" y="124" as="sourcePoint"/>
                        <mxPoint x="49" y="124" as="targetPoint"/>
                    </mxGeometry>
                </mxCell>
                <mxCell id="45" value="" style="endArrow=classic;startArrow=classic;html=1;strokeColor=#1C1C1C;strokeWidth=2;fontColor=#303030;" parent="1" edge="1">
                    <mxGeometry width="50" height="50" relative="1" as="geometry">
                        <mxPoint x="50" y="103" as="sourcePoint"/>
                        <mxPoint x="191" y="103" as="targetPoint"/>
                    </mxGeometry>
                </mxCell>
                <mxCell id="55" value="~CS" style="text;html=1;strokeColor=none;fillColor=none;align=center;verticalAlign=middle;whiteSpace=wrap;rounded=0;fontColor=#303030;movable=0;resizable=0;rotatable=0;deletable=0;editable=0;connectable=0;" parent="1" vertex="1">
                    <mxGeometry x="2524" y="1264" width="60" height="30" as="geometry"/>
                </mxCell>
                <mxCell id="56" value="" style="endArrow=classic;startArrow=classic;html=1;strokeColor=#1C1C1C;strokeWidth=2;fontColor=#303030;movable=0;resizable=0;rotatable=0;deletable=0;editable=0;connectable=0;" parent="1" edge="1">
                    <mxGeometry width="50" height="50" relative="1" as="geometry">
                        <mxPoint x="2444" y="1294" as="sourcePoint"/>
                        <mxPoint x="2594" y="1294" as="targetPoint"/>
                    </mxGeometry>
                </mxCell>
                <mxCell id="59" value="" style="endArrow=classic;startArrow=classic;html=1;strokeColor=#1C1C1C;strokeWidth=2;fontColor=#303030;jumpStyle=none;exitX=1;exitY=0.373;exitDx=0;exitDy=0;exitPerimeter=0;movable=0;resizable=0;rotatable=0;deletable=0;editable=0;connectable=0;" parent="1" edge="1">
                    <mxGeometry width="50" height="50" relative="1" as="geometry">
                        <mxPoint x="2444" y="1352.8000000000002" as="sourcePoint"/>
                        <mxPoint x="2594" y="1353" as="targetPoint"/>
                    </mxGeometry>
                </mxCell>
                <mxCell id="60" value="S_CLK" style="text;html=1;strokeColor=none;fillColor=none;align=center;verticalAlign=middle;whiteSpace=wrap;rounded=0;fontColor=#303030;movable=0;resizable=0;rotatable=0;deletable=0;editable=0;connectable=0;" parent="1" vertex="1">
                    <mxGeometry x="2524" y="1319" width="60" height="30" as="geometry"/>
                </mxCell>
                <mxCell id="61" value="&lt;b&gt;&lt;font style=&quot;font-size: 28px;&quot;&gt;SPI INTERFACE&lt;/font&gt;&lt;/b&gt;" style="text;html=1;strokeColor=none;fillColor=none;align=center;verticalAlign=middle;whiteSpace=wrap;rounded=0;fontColor=#303030;rotation=0;movable=0;resizable=0;rotatable=0;deletable=0;editable=0;connectable=0;" parent="1" vertex="1">
                    <mxGeometry x="867" y="1093" width="269" height="30" as="geometry"/>
                </mxCell>
                <mxCell id="62" value="" style="endArrow=classic;html=1;strokeColor=#1C1C1C;strokeWidth=2;movable=0;resizable=0;rotatable=0;deletable=0;editable=0;connectable=0;" parent="1" edge="1">
                    <mxGeometry width="50" height="50" relative="1" as="geometry">
                        <mxPoint x="2444" y="1179" as="sourcePoint"/>
                        <mxPoint x="2594" y="1179" as="targetPoint"/>
                    </mxGeometry>
                </mxCell>
                <mxCell id="63" value="MOSI" style="text;html=1;strokeColor=none;fillColor=none;align=center;verticalAlign=middle;whiteSpace=wrap;rounded=0;fontColor=#303030;movable=0;resizable=0;rotatable=0;deletable=0;editable=0;connectable=0;" parent="1" vertex="1">
                    <mxGeometry x="2520" y="1146" width="60" height="30" as="geometry"/>
                </mxCell>
                <mxCell id="64" value="" style="endArrow=classic;html=1;strokeColor=#1C1C1C;strokeWidth=2;movable=0;resizable=0;rotatable=0;deletable=0;editable=0;connectable=0;" parent="1" edge="1">
                    <mxGeometry width="50" height="50" relative="1" as="geometry">
                        <mxPoint x="2594" y="1231" as="sourcePoint"/>
                        <mxPoint x="2444" y="1231" as="targetPoint"/>
                    </mxGeometry>
                </mxCell>
                <mxCell id="65" value="MISO" style="text;html=1;strokeColor=none;fillColor=none;align=center;verticalAlign=middle;whiteSpace=wrap;rounded=0;fontColor=#303030;movable=0;resizable=0;rotatable=0;deletable=0;editable=0;connectable=0;" parent="1" vertex="1">
                    <mxGeometry x="2524" y="1200" width="60" height="30" as="geometry"/>
                </mxCell>
                <mxCell id="81" value="Text" style="text;html=1;align=center;verticalAlign=middle;resizable=0;points=[];autosize=1;strokeColor=none;fillColor=none;" parent="1" vertex="1">
                    <mxGeometry x="230" y="2071" width="40" height="26" as="geometry"/>
                </mxCell>
                <mxCell id="136" value="" style="edgeStyle=none;html=1;" parent="1" edge="1">
                    <mxGeometry relative="1" as="geometry">
                        <mxPoint x="1982" y="3370" as="targetPoint"/>
                    </mxGeometry>
                </mxCell>
                <mxCell id="142" value="" style="endArrow=classic;html=1;strokeColor=#1C1C1C;strokeWidth=2;" parent="1" edge="1">
                    <mxGeometry width="50" height="50" relative="1" as="geometry">
                        <mxPoint x="393" y="3668" as="sourcePoint"/>
                        <mxPoint x="533" y="3668" as="targetPoint"/>
                    </mxGeometry>
                </mxCell>
                <mxCell id="143" value="" style="endArrow=classic;html=1;strokeColor=#1C1C1C;strokeWidth=2;" parent="1" edge="1">
                    <mxGeometry width="50" height="50" relative="1" as="geometry">
                        <mxPoint x="529" y="3648" as="sourcePoint"/>
                        <mxPoint x="389.9999999999991" y="3648" as="targetPoint"/>
                    </mxGeometry>
                </mxCell>
                <mxCell id="144" value="" style="endArrow=classic;startArrow=classic;html=1;strokeColor=#1C1C1C;strokeWidth=2;fontColor=#303030;" parent="1" edge="1">
                    <mxGeometry width="50" height="50" relative="1" as="geometry">
                        <mxPoint x="391" y="3627" as="sourcePoint"/>
                        <mxPoint x="532.0000000000009" y="3627" as="targetPoint"/>
                    </mxGeometry>
                </mxCell>
                <mxCell id="161" value="" style="group" parent="1" vertex="1" connectable="0">
                    <mxGeometry x="1432" y="3225" width="428" height="192" as="geometry"/>
                </mxCell>
                <mxCell id="162" value="" style="rounded=0;whiteSpace=wrap;html=1;fillColor=#bac8d3;strokeColor=#23445d;" parent="161" vertex="1">
                    <mxGeometry x="157" width="116" height="192" as="geometry"/>
                </mxCell>
                <mxCell id="163" value="" style="endArrow=classic;html=1;strokeColor=#1C1C1C;strokeWidth=2;" parent="161" edge="1">
                    <mxGeometry width="50" height="50" relative="1" as="geometry">
                        <mxPoint x="15" y="36" as="sourcePoint"/>
                        <mxPoint x="155" y="36" as="targetPoint"/>
                    </mxGeometry>
                </mxCell>
                <mxCell id="164" value="CLK" style="text;html=1;strokeColor=none;fillColor=none;align=center;verticalAlign=middle;whiteSpace=wrap;rounded=0;fontColor=#303030;" parent="161" vertex="1">
                    <mxGeometry x="1" y="7" width="60" height="30" as="geometry"/>
                </mxCell>
                <mxCell id="165" value="[7:0] P_DATA_IN" style="text;html=1;strokeColor=none;fillColor=none;align=center;verticalAlign=middle;whiteSpace=wrap;rounded=0;fontColor=#303030;" parent="161" vertex="1">
                    <mxGeometry x="12" y="124" width="100" height="30" as="geometry"/>
                </mxCell>
                <mxCell id="166" value="[7:0]&amp;nbsp;P_DATA_OUT" style="text;html=1;strokeColor=none;fillColor=none;align=center;verticalAlign=middle;whiteSpace=wrap;rounded=0;fontColor=#303030;" parent="161" vertex="1">
                    <mxGeometry x="331" y="68" width="60" height="30" as="geometry"/>
                </mxCell>
                <mxCell id="167" value="&lt;b style=&quot;font-size: 15px;&quot;&gt;&lt;font style=&quot;font-size: 15px;&quot;&gt;8 BIT REGISTER&lt;/font&gt;&lt;/b&gt;" style="text;html=1;strokeColor=none;fillColor=none;align=center;verticalAlign=middle;whiteSpace=wrap;rounded=0;fontColor=#303030;rotation=90;fontSize=15;" parent="161" vertex="1">
                    <mxGeometry x="151" y="76" width="126" height="30" as="geometry"/>
                </mxCell>
                <mxCell id="168" value="" style="endArrow=classic;html=1;strokeColor=#1C1C1C;strokeWidth=2;" parent="161" edge="1">
                    <mxGeometry width="50" height="50" relative="1" as="geometry">
                        <mxPoint x="278" y="93" as="sourcePoint"/>
                        <mxPoint x="428" y="93" as="targetPoint"/>
                    </mxGeometry>
                </mxCell>
                <mxCell id="169" value="" style="endArrow=classic;html=1;strokeColor=#1C1C1C;strokeWidth=2;entryX=-0.001;entryY=0.334;entryDx=0;entryDy=0;entryPerimeter=0;exitX=0.077;exitY=1.066;exitDx=0;exitDy=0;exitPerimeter=0;" parent="161" edge="1">
                    <mxGeometry width="50" height="50" relative="1" as="geometry">
                        <mxPoint x="13" y="111.57999999999993" as="sourcePoint"/>
                        <mxPoint x="154.12999999999965" y="111" as="targetPoint"/>
                        <Array as="points"/>
                    </mxGeometry>
                </mxCell>
                <mxCell id="170" value="" style="endArrow=classic;html=1;strokeColor=#1C1C1C;strokeWidth=2;" parent="161" edge="1">
                    <mxGeometry width="50" height="50" relative="1" as="geometry">
                        <mxPoint x="14" y="73" as="sourcePoint"/>
                        <mxPoint x="154" y="73" as="targetPoint"/>
                    </mxGeometry>
                </mxCell>
                <mxCell id="171" value="CLR" style="text;html=1;strokeColor=none;fillColor=none;align=center;verticalAlign=middle;whiteSpace=wrap;rounded=0;fontColor=#303030;" parent="161" vertex="1">
                    <mxGeometry y="44" width="60" height="30" as="geometry"/>
                </mxCell>
                <mxCell id="172" value="" style="endArrow=classic;html=1;strokeColor=#1C1C1C;strokeWidth=2;entryX=-0.001;entryY=0.334;entryDx=0;entryDy=0;entryPerimeter=0;exitX=0.077;exitY=1.066;exitDx=0;exitDy=0;exitPerimeter=0;" parent="161" edge="1">
                    <mxGeometry width="50" height="50" relative="1" as="geometry">
                        <mxPoint x="12" y="148.58000000000038" as="sourcePoint"/>
                        <mxPoint x="153.1299999999992" y="148.00000000000045" as="targetPoint"/>
                        <Array as="points"/>
                    </mxGeometry>
                </mxCell>
                <mxCell id="173" value="SH / ~LD" style="text;html=1;strokeColor=none;fillColor=none;align=center;verticalAlign=middle;whiteSpace=wrap;rounded=0;fontColor=#303030;" parent="161" vertex="1">
                    <mxGeometry x="9" y="85" width="64" height="30" as="geometry"/>
                </mxCell>
                <mxCell id="178" value="" style="group" parent="1" connectable="0" vertex="1">
                    <mxGeometry x="760" y="3934" width="428" height="192" as="geometry"/>
                </mxCell>
                <mxCell id="179" value="" style="rounded=0;whiteSpace=wrap;html=1;fillColor=#bac8d3;strokeColor=#23445d;" parent="178" vertex="1">
                    <mxGeometry x="157" width="116" height="192" as="geometry"/>
                </mxCell>
                <mxCell id="180" value="" style="endArrow=classic;html=1;strokeColor=#1C1C1C;strokeWidth=2;" parent="178" edge="1">
                    <mxGeometry width="50" height="50" relative="1" as="geometry">
                        <mxPoint x="15" y="36" as="sourcePoint"/>
                        <mxPoint x="155" y="36" as="targetPoint"/>
                    </mxGeometry>
                </mxCell>
                <mxCell id="181" value="CLK" style="text;html=1;strokeColor=none;fillColor=none;align=center;verticalAlign=middle;whiteSpace=wrap;rounded=0;fontColor=#303030;" parent="178" vertex="1">
                    <mxGeometry x="1" y="7" width="60" height="30" as="geometry"/>
                </mxCell>
                <mxCell id="182" value="[7:0] P_DATA_IN" style="text;html=1;strokeColor=none;fillColor=none;align=center;verticalAlign=middle;whiteSpace=wrap;rounded=0;fontColor=#303030;" parent="178" vertex="1">
                    <mxGeometry x="12" y="124" width="100" height="30" as="geometry"/>
                </mxCell>
                <mxCell id="183" value="[7:0]&amp;nbsp;P_DATA_OUT" style="text;html=1;strokeColor=none;fillColor=none;align=center;verticalAlign=middle;whiteSpace=wrap;rounded=0;fontColor=#303030;" parent="178" vertex="1">
                    <mxGeometry x="330" y="68" width="60" height="30" as="geometry"/>
                </mxCell>
                <mxCell id="184" value="&lt;b style=&quot;font-size: 15px;&quot;&gt;&lt;font style=&quot;font-size: 15px;&quot;&gt;8 BIT REGISTER&lt;/font&gt;&lt;/b&gt;" style="text;html=1;strokeColor=none;fillColor=none;align=center;verticalAlign=middle;whiteSpace=wrap;rounded=0;fontColor=#303030;rotation=90;fontSize=15;" parent="178" vertex="1">
                    <mxGeometry x="151" y="76" width="126" height="30" as="geometry"/>
                </mxCell>
                <mxCell id="185" value="" style="endArrow=classic;html=1;strokeColor=#1C1C1C;strokeWidth=2;" parent="178" edge="1">
                    <mxGeometry width="50" height="50" relative="1" as="geometry">
                        <mxPoint x="278" y="93" as="sourcePoint"/>
                        <mxPoint x="428" y="93" as="targetPoint"/>
                    </mxGeometry>
                </mxCell>
                <mxCell id="186" value="" style="endArrow=classic;html=1;strokeColor=#1C1C1C;strokeWidth=2;entryX=-0.001;entryY=0.334;entryDx=0;entryDy=0;entryPerimeter=0;exitX=0.077;exitY=1.066;exitDx=0;exitDy=0;exitPerimeter=0;" parent="178" edge="1">
                    <mxGeometry width="50" height="50" relative="1" as="geometry">
                        <mxPoint x="13" y="111.57999999999993" as="sourcePoint"/>
                        <mxPoint x="154.12999999999965" y="111" as="targetPoint"/>
                        <Array as="points"/>
                    </mxGeometry>
                </mxCell>
                <mxCell id="187" value="" style="endArrow=classic;html=1;strokeColor=#1C1C1C;strokeWidth=2;" parent="178" edge="1">
                    <mxGeometry width="50" height="50" relative="1" as="geometry">
                        <mxPoint x="14" y="73" as="sourcePoint"/>
                        <mxPoint x="154" y="73" as="targetPoint"/>
                    </mxGeometry>
                </mxCell>
                <mxCell id="188" value="CLR" style="text;html=1;strokeColor=none;fillColor=none;align=center;verticalAlign=middle;whiteSpace=wrap;rounded=0;fontColor=#303030;" parent="178" vertex="1">
                    <mxGeometry y="44" width="60" height="30" as="geometry"/>
                </mxCell>
                <mxCell id="189" value="" style="endArrow=classic;html=1;strokeColor=#1C1C1C;strokeWidth=2;entryX=-0.001;entryY=0.334;entryDx=0;entryDy=0;entryPerimeter=0;exitX=0.077;exitY=1.066;exitDx=0;exitDy=0;exitPerimeter=0;" parent="178" edge="1">
                    <mxGeometry width="50" height="50" relative="1" as="geometry">
                        <mxPoint x="12" y="148.58000000000038" as="sourcePoint"/>
                        <mxPoint x="153.1299999999992" y="148.00000000000045" as="targetPoint"/>
                        <Array as="points"/>
                    </mxGeometry>
                </mxCell>
                <mxCell id="190" value="SH / ~LD" style="text;html=1;strokeColor=none;fillColor=none;align=center;verticalAlign=middle;whiteSpace=wrap;rounded=0;fontColor=#303030;" parent="178" vertex="1">
                    <mxGeometry x="9" y="85" width="64" height="30" as="geometry"/>
                </mxCell>
                <mxCell id="191" value="" style="endArrow=none;dashed=1;html=1;fontSize=15;strokeColor=#3B1FF0;strokeWidth=3;movable=0;resizable=0;rotatable=0;deletable=0;editable=0;connectable=0;" parent="1" edge="1">
                    <mxGeometry width="50" height="50" relative="1" as="geometry">
                        <mxPoint x="925" y="1447" as="sourcePoint"/>
                        <mxPoint x="1081" y="1715" as="targetPoint"/>
                        <Array as="points">
                            <mxPoint x="1027" y="1447"/>
                            <mxPoint x="1027" y="1715"/>
                        </Array>
                    </mxGeometry>
                </mxCell>
                <mxCell id="225" value="" style="group" parent="1" vertex="1" connectable="0">
                    <mxGeometry x="1489" y="3689" width="273" height="194" as="geometry"/>
                </mxCell>
                <mxCell id="196" value="" style="rounded=0;whiteSpace=wrap;html=1;fillColor=#bac8d3;strokeColor=#23445d;movable=1;resizable=1;rotatable=1;deletable=1;editable=1;connectable=1;" parent="225" vertex="1">
                    <mxGeometry x="157" y="2" width="116" height="192" as="geometry"/>
                </mxCell>
                <mxCell id="197" value="" style="endArrow=classic;html=1;strokeColor=#1C1C1C;strokeWidth=2;movable=1;resizable=1;rotatable=1;deletable=1;editable=1;connectable=1;" parent="225" edge="1">
                    <mxGeometry width="50" height="50" relative="1" as="geometry">
                        <mxPoint x="15" y="29" as="sourcePoint"/>
                        <mxPoint x="155" y="29" as="targetPoint"/>
                    </mxGeometry>
                </mxCell>
                <mxCell id="198" value="CLK" style="text;html=1;strokeColor=none;fillColor=none;align=center;verticalAlign=middle;whiteSpace=wrap;rounded=0;fontColor=#303030;movable=1;resizable=1;rotatable=1;deletable=1;editable=1;connectable=1;" parent="225" vertex="1">
                    <mxGeometry x="1" width="60" height="30" as="geometry"/>
                </mxCell>
                <mxCell id="199" value="[7:0] P_DATA_IN" style="text;html=1;strokeColor=none;fillColor=none;align=center;verticalAlign=middle;whiteSpace=wrap;rounded=0;fontColor=#303030;movable=1;resizable=1;rotatable=1;deletable=1;editable=1;connectable=1;" parent="225" vertex="1">
                    <mxGeometry x="12" y="117" width="100" height="30" as="geometry"/>
                </mxCell>
                <mxCell id="200" value="[7:0]&amp;nbsp;P_DATA_OUT" style="text;html=1;strokeColor=none;fillColor=none;align=center;verticalAlign=middle;whiteSpace=wrap;rounded=0;fontColor=#303030;movable=1;resizable=1;rotatable=1;deletable=1;editable=1;connectable=1;" parent="225" vertex="1">
                    <mxGeometry x="38" y="149" width="60" height="30" as="geometry"/>
                </mxCell>
                <mxCell id="201" value="&lt;b style=&quot;font-size: 15px;&quot;&gt;&lt;font style=&quot;font-size: 15px;&quot;&gt;8 BIT REGISTER&lt;/font&gt;&lt;/b&gt;" style="text;html=1;strokeColor=none;fillColor=none;align=center;verticalAlign=middle;whiteSpace=wrap;rounded=0;fontColor=#303030;rotation=90;fontSize=15;movable=1;resizable=1;rotatable=1;deletable=1;editable=1;connectable=1;" parent="225" vertex="1">
                    <mxGeometry x="151" y="78" width="126" height="30" as="geometry"/>
                </mxCell>
                <mxCell id="202" value="" style="endArrow=classic;html=1;strokeColor=#1C1C1C;strokeWidth=2;movable=1;resizable=1;rotatable=1;deletable=1;editable=1;connectable=1;" parent="225" edge="1">
                    <mxGeometry width="50" height="50" relative="1" as="geometry">
                        <mxPoint x="153" y="177" as="sourcePoint"/>
                        <mxPoint x="12" y="177" as="targetPoint"/>
                    </mxGeometry>
                </mxCell>
                <mxCell id="203" value="" style="endArrow=classic;html=1;strokeColor=#1C1C1C;strokeWidth=2;entryX=-0.001;entryY=0.334;entryDx=0;entryDy=0;entryPerimeter=0;exitX=0.077;exitY=1.066;exitDx=0;exitDy=0;exitPerimeter=0;movable=1;resizable=1;rotatable=1;deletable=1;editable=1;connectable=1;" parent="225" edge="1">
                    <mxGeometry width="50" height="50" relative="1" as="geometry">
                        <mxPoint x="13" y="104.57999999999993" as="sourcePoint"/>
                        <mxPoint x="154.12999999999965" y="104" as="targetPoint"/>
                        <Array as="points"/>
                    </mxGeometry>
                </mxCell>
                <mxCell id="204" value="" style="endArrow=classic;html=1;strokeColor=#1C1C1C;strokeWidth=2;movable=1;resizable=1;rotatable=1;deletable=1;editable=1;connectable=1;" parent="225" edge="1">
                    <mxGeometry width="50" height="50" relative="1" as="geometry">
                        <mxPoint x="14" y="66" as="sourcePoint"/>
                        <mxPoint x="154" y="66" as="targetPoint"/>
                    </mxGeometry>
                </mxCell>
                <mxCell id="205" value="CLR" style="text;html=1;strokeColor=none;fillColor=none;align=center;verticalAlign=middle;whiteSpace=wrap;rounded=0;fontColor=#303030;movable=1;resizable=1;rotatable=1;deletable=1;editable=1;connectable=1;" parent="225" vertex="1">
                    <mxGeometry y="37" width="60" height="30" as="geometry"/>
                </mxCell>
                <mxCell id="206" value="" style="endArrow=classic;html=1;strokeColor=#1C1C1C;strokeWidth=2;entryX=-0.001;entryY=0.334;entryDx=0;entryDy=0;entryPerimeter=0;exitX=0.077;exitY=1.066;exitDx=0;exitDy=0;exitPerimeter=0;movable=1;resizable=1;rotatable=1;deletable=1;editable=1;connectable=1;" parent="225" edge="1">
                    <mxGeometry width="50" height="50" relative="1" as="geometry">
                        <mxPoint x="12" y="141.58000000000038" as="sourcePoint"/>
                        <mxPoint x="153.1299999999992" y="141.00000000000045" as="targetPoint"/>
                        <Array as="points"/>
                    </mxGeometry>
                </mxCell>
                <mxCell id="207" value="SH / ~LD" style="text;html=1;strokeColor=none;fillColor=none;align=center;verticalAlign=middle;whiteSpace=wrap;rounded=0;fontColor=#303030;movable=1;resizable=1;rotatable=1;deletable=1;editable=1;connectable=1;" parent="225" vertex="1">
                    <mxGeometry x="9" y="78" width="64" height="30" as="geometry"/>
                </mxCell>
                <mxCell id="254" value="" style="group;movable=0;resizable=0;rotatable=0;deletable=0;editable=0;connectable=0;" parent="1" vertex="1" connectable="0">
                    <mxGeometry x="1079" y="1540" width="419" height="194" as="geometry"/>
                </mxCell>
                <mxCell id="228" value="" style="rounded=0;whiteSpace=wrap;html=1;fillColor=#bac8d3;strokeColor=#23445d;movable=0;resizable=0;rotatable=0;deletable=0;editable=0;connectable=0;" parent="254" vertex="1">
                    <mxGeometry x="157" y="2" width="116" height="192" as="geometry"/>
                </mxCell>
                <mxCell id="229" value="" style="endArrow=classic;html=1;strokeColor=#1C1C1C;strokeWidth=2;movable=0;resizable=0;rotatable=0;deletable=0;editable=0;connectable=0;" parent="254" edge="1">
                    <mxGeometry width="50" height="50" relative="1" as="geometry">
                        <mxPoint x="15" y="29" as="sourcePoint"/>
                        <mxPoint x="155" y="29" as="targetPoint"/>
                    </mxGeometry>
                </mxCell>
                <mxCell id="230" value="CLK" style="text;html=1;strokeColor=none;fillColor=none;align=center;verticalAlign=middle;whiteSpace=wrap;rounded=0;fontColor=#303030;movable=0;resizable=0;rotatable=0;deletable=0;editable=0;connectable=0;" parent="254" vertex="1">
                    <mxGeometry x="1" width="60" height="30" as="geometry"/>
                </mxCell>
                <mxCell id="231" value="[7:0] P_DATA_IN" style="text;html=1;strokeColor=none;fillColor=none;align=center;verticalAlign=middle;whiteSpace=wrap;rounded=0;fontColor=#303030;movable=0;resizable=0;rotatable=0;deletable=0;editable=0;connectable=0;" parent="254" vertex="1">
                    <mxGeometry x="319" y="70" width="100" height="30" as="geometry"/>
                </mxCell>
                <mxCell id="232" value="[7:0]&amp;nbsp;P_DATA_OUT" style="text;html=1;strokeColor=none;fillColor=none;align=center;verticalAlign=middle;whiteSpace=wrap;rounded=0;fontColor=#303030;movable=0;resizable=0;rotatable=0;deletable=0;editable=0;connectable=0;" parent="254" vertex="1">
                    <mxGeometry x="38" y="149" width="60" height="30" as="geometry"/>
                </mxCell>
                <mxCell id="233" value="&lt;b style=&quot;font-size: 15px;&quot;&gt;&lt;font style=&quot;font-size: 15px;&quot;&gt;8 BIT REGISTER&lt;/font&gt;&lt;/b&gt;" style="text;html=1;strokeColor=none;fillColor=none;align=center;verticalAlign=middle;whiteSpace=wrap;rounded=0;fontColor=#303030;rotation=90;fontSize=15;movable=0;resizable=0;rotatable=0;deletable=0;editable=0;connectable=0;" parent="254" vertex="1">
                    <mxGeometry x="151" y="83" width="126" height="30" as="geometry"/>
                </mxCell>
                <mxCell id="234" value="" style="endArrow=classic;html=1;strokeColor=#1C1C1C;strokeWidth=2;movable=0;resizable=0;rotatable=0;deletable=0;editable=0;connectable=0;" parent="254" edge="1">
                    <mxGeometry width="50" height="50" relative="1" as="geometry">
                        <mxPoint x="153" y="177" as="sourcePoint"/>
                        <mxPoint x="12" y="177" as="targetPoint"/>
                    </mxGeometry>
                </mxCell>
                <mxCell id="235" value="" style="endArrow=classic;html=1;strokeColor=#1C1C1C;strokeWidth=2;entryX=-0.001;entryY=0.334;entryDx=0;entryDy=0;entryPerimeter=0;exitX=0.077;exitY=1.066;exitDx=0;exitDy=0;exitPerimeter=0;movable=0;resizable=0;rotatable=0;deletable=0;editable=0;connectable=0;" parent="254" edge="1">
                    <mxGeometry width="50" height="50" relative="1" as="geometry">
                        <mxPoint x="13" y="104.57999999999993" as="sourcePoint"/>
                        <mxPoint x="154.12999999999965" y="104" as="targetPoint"/>
                        <Array as="points"/>
                    </mxGeometry>
                </mxCell>
                <mxCell id="236" value="" style="endArrow=classic;html=1;strokeColor=#1C1C1C;strokeWidth=2;movable=0;resizable=0;rotatable=0;deletable=0;editable=0;connectable=0;" parent="254" edge="1">
                    <mxGeometry width="50" height="50" relative="1" as="geometry">
                        <mxPoint x="14" y="66" as="sourcePoint"/>
                        <mxPoint x="154" y="66" as="targetPoint"/>
                    </mxGeometry>
                </mxCell>
                <mxCell id="237" value="CLR" style="text;html=1;strokeColor=none;fillColor=none;align=center;verticalAlign=middle;whiteSpace=wrap;rounded=0;fontColor=#303030;movable=0;resizable=0;rotatable=0;deletable=0;editable=0;connectable=0;" parent="254" vertex="1">
                    <mxGeometry y="37" width="60" height="30" as="geometry"/>
                </mxCell>
                <mxCell id="239" value="SH / ~LD" style="text;html=1;strokeColor=none;fillColor=none;align=center;verticalAlign=middle;whiteSpace=wrap;rounded=0;fontColor=#303030;movable=0;resizable=0;rotatable=0;deletable=0;editable=0;connectable=0;" parent="254" vertex="1">
                    <mxGeometry x="9" y="78" width="64" height="30" as="geometry"/>
                </mxCell>
                <mxCell id="247" value="" style="endArrow=classic;html=1;strokeColor=#1C1C1C;strokeWidth=2;movable=0;resizable=0;rotatable=0;deletable=0;editable=0;connectable=0;" parent="254" edge="1">
                    <mxGeometry width="50" height="50" relative="1" as="geometry">
                        <mxPoint x="415.0000000000002" y="93.99999999999977" as="sourcePoint"/>
                        <mxPoint x="274" y="93.99999999999977" as="targetPoint"/>
                    </mxGeometry>
                </mxCell>
                <mxCell id="259" value="" style="group;movable=0;resizable=0;rotatable=0;deletable=0;editable=0;connectable=0;" parent="1" vertex="1" connectable="0">
                    <mxGeometry x="736" y="1164" width="154" height="30" as="geometry"/>
                </mxCell>
                <mxCell id="47" value="" style="endArrow=classic;html=1;strokeColor=#1C1C1C;strokeWidth=2;movable=0;resizable=0;rotatable=0;deletable=0;editable=0;connectable=0;" parent="259" edge="1">
                    <mxGeometry width="50" height="50" relative="1" as="geometry">
                        <mxPoint x="14" y="29" as="sourcePoint"/>
                        <mxPoint x="154" y="29" as="targetPoint"/>
                    </mxGeometry>
                </mxCell>
                <mxCell id="48" value="M/~S" style="text;html=1;strokeColor=none;fillColor=none;align=center;verticalAlign=middle;whiteSpace=wrap;rounded=0;fontColor=#303030;movable=0;resizable=0;rotatable=0;deletable=0;editable=0;connectable=0;" parent="259" vertex="1">
                    <mxGeometry width="60" height="30" as="geometry"/>
                </mxCell>
                <mxCell id="260" value="" style="group;movable=0;resizable=0;rotatable=0;deletable=0;editable=0;connectable=0;" parent="1" vertex="1" connectable="0">
                    <mxGeometry x="731" y="1203" width="159" height="30" as="geometry"/>
                </mxCell>
                <mxCell id="49" value="" style="endArrow=classic;html=1;strokeColor=#1C1C1C;strokeWidth=2;movable=0;resizable=0;rotatable=0;deletable=0;editable=0;connectable=0;" parent="260" edge="1">
                    <mxGeometry width="50" height="50" relative="1" as="geometry">
                        <mxPoint x="18" y="30" as="sourcePoint"/>
                        <mxPoint x="159" y="30" as="targetPoint"/>
                    </mxGeometry>
                </mxCell>
                <mxCell id="50" value="CLK" style="text;html=1;strokeColor=none;fillColor=none;align=center;verticalAlign=middle;whiteSpace=wrap;rounded=0;fontColor=#303030;movable=0;resizable=0;rotatable=0;deletable=0;editable=0;connectable=0;" parent="260" vertex="1">
                    <mxGeometry width="60" height="30" as="geometry"/>
                </mxCell>
                <mxCell id="261" value="" style="group;movable=0;resizable=0;rotatable=0;deletable=0;editable=0;connectable=0;" parent="1" vertex="1" connectable="0">
                    <mxGeometry x="748" y="1248" width="140.99999999999977" height="31" as="geometry"/>
                </mxCell>
                <mxCell id="52" value="[7:0] P_DATA_IN" style="text;html=1;strokeColor=none;fillColor=none;align=center;verticalAlign=middle;whiteSpace=wrap;rounded=0;fontColor=#303030;movable=0;resizable=0;rotatable=0;deletable=0;editable=0;connectable=0;" parent="261" vertex="1">
                    <mxGeometry x="6" y="3" width="100" height="30" as="geometry"/>
                </mxCell>
                <mxCell id="262" value="" style="group;movable=0;resizable=0;rotatable=0;deletable=0;editable=0;connectable=0;" parent="1" vertex="1" connectable="0">
                    <mxGeometry x="764" y="1412" width="142.99999999999977" height="32" as="geometry"/>
                </mxCell>
                <mxCell id="53" value="" style="endArrow=classic;html=1;strokeColor=#1C1C1C;strokeWidth=2;exitX=0;exitY=0.25;exitDx=0;exitDy=0;movable=0;resizable=0;rotatable=0;deletable=0;editable=0;connectable=0;" parent="262" edge="1">
                    <mxGeometry width="50" height="50" relative="1" as="geometry">
                        <mxPoint x="142.99999999999977" y="32" as="sourcePoint"/>
                        <mxPoint y="32" as="targetPoint"/>
                    </mxGeometry>
                </mxCell>
                <mxCell id="54" value="[7:0]&amp;nbsp;P_DATA_OUT" style="text;html=1;strokeColor=none;fillColor=none;align=center;verticalAlign=middle;whiteSpace=wrap;rounded=0;fontColor=#303030;movable=0;resizable=0;rotatable=0;deletable=0;editable=0;connectable=0;" parent="262" vertex="1">
                    <mxGeometry x="27" width="60" height="30" as="geometry"/>
                </mxCell>
                <mxCell id="263" value="" style="group;movable=0;resizable=0;rotatable=0;deletable=0;editable=0;connectable=0;" parent="1" vertex="1" connectable="0">
                    <mxGeometry x="759" y="1527" width="145.74999999999977" height="31.40000000000009" as="geometry"/>
                </mxCell>
                <mxCell id="57" value="" style="endArrow=classic;html=1;strokeColor=#1C1C1C;strokeWidth=2;entryX=-0.001;entryY=0.334;entryDx=0;entryDy=0;entryPerimeter=0;exitX=0.077;exitY=1.066;exitDx=0;exitDy=0;exitPerimeter=0;movable=0;resizable=0;rotatable=0;deletable=0;editable=0;connectable=0;" parent="263" source="58" edge="1">
                    <mxGeometry width="50" height="50" relative="1" as="geometry">
                        <mxPoint y="30" as="sourcePoint"/>
                        <mxPoint x="145.74999999999977" y="31.40000000000009" as="targetPoint"/>
                        <Array as="points"/>
                    </mxGeometry>
                </mxCell>
                <mxCell id="58" value="RESET" style="text;html=1;strokeColor=none;fillColor=none;align=center;verticalAlign=middle;whiteSpace=wrap;rounded=0;fontColor=#303030;movable=0;resizable=0;rotatable=0;deletable=0;editable=0;connectable=0;" parent="263" vertex="1">
                    <mxGeometry width="60" height="30" as="geometry"/>
                </mxCell>
                <mxCell id="264" value="" style="group;movable=0;resizable=0;rotatable=0;deletable=0;editable=0;connectable=0;" parent="1" vertex="1" connectable="0">
                    <mxGeometry x="759" y="1574" width="146" height="35" as="geometry"/>
                </mxCell>
                <mxCell id="66" value="" style="endArrow=classic;html=1;strokeColor=#1C1C1C;strokeWidth=2;movable=0;resizable=0;rotatable=0;deletable=0;editable=0;connectable=0;" parent="264" edge="1">
                    <mxGeometry width="50" height="50" relative="1" as="geometry">
                        <mxPoint x="5" y="35" as="sourcePoint"/>
                        <mxPoint x="146" y="35" as="targetPoint"/>
                        <Array as="points"/>
                    </mxGeometry>
                </mxCell>
                <mxCell id="67" value="WRITE" style="text;html=1;strokeColor=none;fillColor=none;align=center;verticalAlign=middle;whiteSpace=wrap;rounded=0;fontColor=#303030;movable=0;resizable=0;rotatable=0;deletable=0;editable=0;connectable=0;" parent="264" vertex="1">
                    <mxGeometry width="60" height="30" as="geometry"/>
                </mxCell>
                <mxCell id="265" value="" style="group;movable=0;resizable=0;rotatable=0;deletable=0;editable=0;connectable=0;" parent="1" vertex="1" connectable="0">
                    <mxGeometry x="756" y="1632" width="149" height="30" as="geometry"/>
                </mxCell>
                <mxCell id="72" value="" style="endArrow=classic;html=1;strokeColor=#1C1C1C;strokeWidth=2;movable=0;resizable=0;rotatable=0;deletable=0;editable=0;connectable=0;" parent="265" edge="1">
                    <mxGeometry width="50" height="50" relative="1" as="geometry">
                        <mxPoint x="8" y="25" as="sourcePoint"/>
                        <mxPoint x="149" y="25" as="targetPoint"/>
                        <Array as="points"/>
                    </mxGeometry>
                </mxCell>
                <mxCell id="73" value="READ" style="text;html=1;strokeColor=none;fillColor=none;align=center;verticalAlign=middle;whiteSpace=wrap;rounded=0;fontColor=#303030;movable=0;resizable=0;rotatable=0;deletable=0;editable=0;connectable=0;" parent="265" vertex="1">
                    <mxGeometry width="60" height="30" as="geometry"/>
                </mxCell>
                <mxCell id="266" value="" style="group;movable=0;resizable=0;rotatable=0;deletable=0;editable=0;connectable=0;" parent="1" vertex="1" connectable="0">
                    <mxGeometry x="745" y="1738" width="141.12999999999965" height="30.579999999999927" as="geometry"/>
                </mxCell>
                <mxCell id="68" value="[7:0]&amp;nbsp; CONTROL" style="text;html=1;strokeColor=none;fillColor=none;align=center;verticalAlign=middle;whiteSpace=wrap;rounded=0;fontColor=#303030;movable=0;resizable=0;rotatable=0;deletable=0;editable=0;connectable=0;" parent="266" vertex="1">
                    <mxGeometry width="100" height="30" as="geometry"/>
                </mxCell>
                <mxCell id="69" value="" style="endArrow=classic;html=1;strokeColor=#1C1C1C;strokeWidth=2;entryX=-0.001;entryY=0.334;entryDx=0;entryDy=0;entryPerimeter=0;exitX=0.077;exitY=1.066;exitDx=0;exitDy=0;exitPerimeter=0;movable=0;resizable=0;rotatable=0;deletable=0;editable=0;connectable=0;" parent="266" edge="1">
                    <mxGeometry width="50" height="50" relative="1" as="geometry">
                        <mxPoint y="30.579999999999927" as="sourcePoint"/>
                        <mxPoint x="141.12999999999965" y="30" as="targetPoint"/>
                        <Array as="points"/>
                    </mxGeometry>
                </mxCell>
                <mxCell id="268" value="" style="group;movable=0;resizable=0;rotatable=0;deletable=0;editable=0;connectable=0;" parent="1" vertex="1" connectable="0">
                    <mxGeometry x="751" y="2022" width="140" height="30" as="geometry"/>
                </mxCell>
                <mxCell id="70" value="[7:0] STATUS" style="text;html=1;strokeColor=none;fillColor=none;align=center;verticalAlign=middle;whiteSpace=wrap;rounded=0;fontColor=#303030;movable=0;resizable=0;rotatable=0;deletable=0;editable=0;connectable=0;" parent="268" vertex="1">
                    <mxGeometry width="85" height="30" as="geometry"/>
                </mxCell>
                <mxCell id="71" value="" style="endArrow=classic;html=1;strokeColor=#1C1C1C;strokeWidth=2;movable=0;resizable=0;rotatable=0;deletable=0;editable=0;connectable=0;" parent="268" edge="1">
                    <mxGeometry width="50" height="50" relative="1" as="geometry">
                        <mxPoint x="140" y="30" as="sourcePoint"/>
                        <mxPoint y="30" as="targetPoint"/>
                    </mxGeometry>
                </mxCell>
                <mxCell id="286" value="" style="endArrow=none;dashed=1;html=1;fontSize=15;strokeColor=#3B1FF0;strokeWidth=3;movable=0;resizable=0;rotatable=0;deletable=0;editable=0;connectable=0;" parent="1" edge="1">
                    <mxGeometry width="50" height="50" relative="1" as="geometry">
                        <mxPoint x="890" y="1768" as="sourcePoint"/>
                        <mxPoint x="1234" y="2007" as="targetPoint"/>
                        <Array as="points">
                            <mxPoint x="943" y="1768"/>
                            <mxPoint x="943" y="2007"/>
                        </Array>
                    </mxGeometry>
                </mxCell>
                <mxCell id="290" value="" style="edgeStyle=none;orthogonalLoop=1;jettySize=auto;html=1;dashed=1;fontSize=22;fontColor=#000000;movable=0;resizable=0;rotatable=0;deletable=0;editable=0;connectable=0;" parent="1" edge="1">
                    <mxGeometry width="80" relative="1" as="geometry">
                        <mxPoint x="1339" y="1430" as="sourcePoint"/>
                        <mxPoint x="1419" y="1430" as="targetPoint"/>
                        <Array as="points"/>
                    </mxGeometry>
                </mxCell>
                <mxCell id="310" value="" style="group;movable=0;resizable=0;rotatable=0;deletable=0;editable=0;connectable=0;" parent="1" vertex="1" connectable="0">
                    <mxGeometry x="1092" y="1144" width="1358" height="1334" as="geometry"/>
                </mxCell>
                <mxCell id="311" value="" style="rounded=0;whiteSpace=wrap;html=1;fillColor=#bac8d3;strokeColor=#23445d;movable=0;resizable=0;rotatable=0;deletable=0;editable=0;connectable=0;" parent="310" vertex="1">
                    <mxGeometry x="148" y="-13" width="116" height="192" as="geometry"/>
                </mxCell>
                <mxCell id="312" value="" style="endArrow=classic;html=1;strokeColor=#1C1C1C;strokeWidth=2;movable=0;resizable=0;rotatable=0;deletable=0;editable=0;connectable=0;" parent="310" edge="1">
                    <mxGeometry width="50" height="50" relative="1" as="geometry">
                        <mxPoint x="6" y="23" as="sourcePoint"/>
                        <mxPoint x="146" y="23" as="targetPoint"/>
                    </mxGeometry>
                </mxCell>
                <mxCell id="314" value="[7:0] P_DATA_IN" style="text;html=1;strokeColor=none;fillColor=none;align=center;verticalAlign=middle;whiteSpace=wrap;rounded=0;fontColor=#303030;movable=0;resizable=0;rotatable=0;deletable=0;editable=0;connectable=0;" parent="310" vertex="1">
                    <mxGeometry x="3" y="111" width="100" height="30" as="geometry"/>
                </mxCell>
                <mxCell id="315" value="[7:0]&amp;nbsp;P_DATA_OUT" style="text;html=1;strokeColor=none;fillColor=none;align=center;verticalAlign=middle;whiteSpace=wrap;rounded=0;fontColor=#303030;movable=0;resizable=0;rotatable=0;deletable=0;editable=0;connectable=0;" parent="310" vertex="1">
                    <mxGeometry x="322" y="55" width="60" height="30" as="geometry"/>
                </mxCell>
                <mxCell id="316" value="&lt;b style=&quot;font-size: 15px;&quot;&gt;&lt;font style=&quot;font-size: 15px;&quot;&gt;8 BIT REGISTER&lt;/font&gt;&lt;/b&gt;" style="text;html=1;strokeColor=none;fillColor=none;align=center;verticalAlign=middle;whiteSpace=wrap;rounded=0;fontColor=#303030;rotation=90;fontSize=15;movable=0;resizable=0;rotatable=0;deletable=0;editable=0;connectable=0;" parent="310" vertex="1">
                    <mxGeometry x="142" y="63" width="126" height="30" as="geometry"/>
                </mxCell>
                <mxCell id="317" value="" style="endArrow=classic;html=1;strokeColor=#1C1C1C;strokeWidth=2;movable=0;resizable=0;rotatable=0;deletable=0;editable=0;connectable=0;" parent="310" edge="1">
                    <mxGeometry width="50" height="50" relative="1" as="geometry">
                        <mxPoint x="269" y="80" as="sourcePoint"/>
                        <mxPoint x="419" y="80" as="targetPoint"/>
                    </mxGeometry>
                </mxCell>
                <mxCell id="318" value="" style="endArrow=classic;html=1;strokeColor=#1C1C1C;strokeWidth=2;entryX=-0.001;entryY=0.334;entryDx=0;entryDy=0;entryPerimeter=0;exitX=0.077;exitY=1.066;exitDx=0;exitDy=0;exitPerimeter=0;movable=0;resizable=0;rotatable=0;deletable=0;editable=0;connectable=0;" parent="310" edge="1">
                    <mxGeometry width="50" height="50" relative="1" as="geometry">
                        <mxPoint x="4" y="98.57999999999993" as="sourcePoint"/>
                        <mxPoint x="145.12999999999965" y="98" as="targetPoint"/>
                        <Array as="points"/>
                    </mxGeometry>
                </mxCell>
                <mxCell id="319" value="" style="endArrow=classic;html=1;strokeColor=#1C1C1C;strokeWidth=2;movable=0;resizable=0;rotatable=0;deletable=0;editable=0;connectable=0;" parent="310" edge="1">
                    <mxGeometry width="50" height="50" relative="1" as="geometry">
                        <mxPoint x="5" y="60" as="sourcePoint"/>
                        <mxPoint x="145" y="60" as="targetPoint"/>
                    </mxGeometry>
                </mxCell>
                <mxCell id="320" value="CLR" style="text;html=1;strokeColor=none;fillColor=none;align=center;verticalAlign=middle;whiteSpace=wrap;rounded=0;fontColor=#303030;movable=0;resizable=0;rotatable=0;deletable=0;editable=0;connectable=0;" parent="310" vertex="1">
                    <mxGeometry y="39" width="60" height="30" as="geometry"/>
                </mxCell>
                <mxCell id="321" value="" style="endArrow=classic;html=1;strokeColor=#1C1C1C;strokeWidth=2;entryX=-0.001;entryY=0.334;entryDx=0;entryDy=0;entryPerimeter=0;exitX=0.077;exitY=1.066;exitDx=0;exitDy=0;exitPerimeter=0;movable=0;resizable=0;rotatable=0;deletable=0;editable=0;connectable=0;" parent="310" edge="1">
                    <mxGeometry width="50" height="50" relative="1" as="geometry">
                        <mxPoint x="3" y="135.58000000000038" as="sourcePoint"/>
                        <mxPoint x="144.1299999999992" y="135.00000000000045" as="targetPoint"/>
                        <Array as="points"/>
                    </mxGeometry>
                </mxCell>
                <mxCell id="322" value="SH / ~LD" style="text;html=1;strokeColor=none;fillColor=none;align=center;verticalAlign=middle;whiteSpace=wrap;rounded=0;fontColor=#303030;movable=0;resizable=0;rotatable=0;deletable=0;editable=0;connectable=0;" parent="310" vertex="1">
                    <mxGeometry y="72" width="64" height="30" as="geometry"/>
                </mxCell>
                <mxCell id="469" value="" style="group;rotation=0;movable=0;resizable=0;rotatable=0;deletable=0;editable=0;connectable=0;" parent="310" connectable="0" vertex="1">
                    <mxGeometry x="-72" y="48" width="72.69" height="24.39" as="geometry"/>
                </mxCell>
                <mxCell id="470" value="" style="shape=offPageConnector;whiteSpace=wrap;html=1;fontSize=15;fontColor=#000000;fillColor=#E6E6E6;rotation=-90;strokeColor=#666666;strokeWidth=1;size=0.18854181942611523;movable=0;resizable=0;rotatable=0;deletable=0;editable=0;connectable=0;" parent="469" vertex="1">
                    <mxGeometry x="26" y="-22" width="24.39" height="68.19" as="geometry"/>
                </mxCell>
                <mxCell id="471" value="CLR" style="text;html=1;strokeColor=none;fillColor=none;align=center;verticalAlign=middle;whiteSpace=wrap;rounded=0;strokeWidth=1;fontSize=15;fontColor=#000000;rotation=0;movable=0;resizable=0;rotatable=0;deletable=0;editable=0;connectable=0;" parent="469" vertex="1">
                    <mxGeometry x="2" y="2" width="60" height="19.714285714285715" as="geometry"/>
                </mxCell>
                <mxCell id="337" value="" style="endArrow=none;dashed=1;html=1;strokeColor=#0000CC;strokeWidth=3;fontSize=22;fontColor=#000000;curved=1;movable=0;resizable=0;rotatable=0;deletable=0;editable=0;connectable=0;" parent="1" edge="1">
                    <mxGeometry width="50" height="50" relative="1" as="geometry">
                        <mxPoint x="897" y="1274" as="sourcePoint"/>
                        <mxPoint x="1092" y="1274" as="targetPoint"/>
                    </mxGeometry>
                </mxCell>
                <mxCell id="338" value="" style="endArrow=none;dashed=1;html=1;fontSize=36;movable=1;resizable=1;rotatable=1;deletable=1;editable=1;connectable=1;" parent="1" edge="1">
                    <mxGeometry width="50" height="50" relative="1" as="geometry">
                        <mxPoint x="2790" y="1660" as="sourcePoint"/>
                        <mxPoint x="2840" y="1610" as="targetPoint"/>
                    </mxGeometry>
                </mxCell>
                <mxCell id="341" value="" style="endArrow=none;dashed=1;html=1;fontSize=36;movable=1;resizable=1;rotatable=1;deletable=1;editable=1;connectable=1;" parent="1" edge="1">
                    <mxGeometry width="50" height="50" relative="1" as="geometry">
                        <mxPoint x="2790" y="1660" as="sourcePoint"/>
                        <mxPoint x="2840" y="1610" as="targetPoint"/>
                    </mxGeometry>
                </mxCell>
                <mxCell id="75" value="" style="endArrow=classic;html=1;strokeColor=#1C1C1C;strokeWidth=2;movable=0;resizable=0;rotatable=0;deletable=0;editable=0;connectable=0;" parent="1" edge="1">
                    <mxGeometry width="50" height="50" relative="1" as="geometry">
                        <mxPoint x="748.0000000000002" y="1274" as="sourcePoint"/>
                        <mxPoint x="888.9999999999998" y="1274" as="targetPoint"/>
                    </mxGeometry>
                </mxCell>
                <mxCell id="313" value="CLK" style="text;html=1;strokeColor=none;fillColor=none;align=center;verticalAlign=middle;whiteSpace=wrap;rounded=0;fontColor=#303030;movable=0;resizable=0;rotatable=0;deletable=0;editable=0;connectable=0;" parent="1" vertex="1">
                    <mxGeometry x="1093" y="1144" width="60" height="30" as="geometry"/>
                </mxCell>
                <mxCell id="348" value="" style="endArrow=none;dashed=1;html=1;fontSize=15;strokeColor=#3B1FF0;strokeWidth=3;exitX=0;exitY=1;exitDx=0;exitDy=0;movable=0;resizable=0;rotatable=0;deletable=0;editable=0;connectable=0;" parent="1" source="250" edge="1">
                    <mxGeometry width="50" height="50" relative="1" as="geometry">
                        <mxPoint x="1659" y="1481" as="sourcePoint"/>
                        <mxPoint x="1520" y="1220" as="targetPoint"/>
                        <Array as="points">
                            <mxPoint x="1700" y="1479"/>
                            <mxPoint x="1700" y="1220"/>
                        </Array>
                    </mxGeometry>
                </mxCell>
                <mxCell id="335" value="" style="endArrow=none;dashed=1;html=1;fontSize=15;strokeColor=#3B1FF0;strokeWidth=3;movable=0;resizable=0;rotatable=0;deletable=0;editable=0;connectable=0;" parent="1" edge="1">
                    <mxGeometry width="50" height="50" relative="1" as="geometry">
                        <mxPoint x="2330" y="1569" as="sourcePoint"/>
                        <mxPoint x="2450" y="1180" as="targetPoint"/>
                        <Array as="points">
                            <mxPoint x="2370" y="1569"/>
                            <mxPoint x="2370" y="1180"/>
                        </Array>
                    </mxGeometry>
                </mxCell>
                <mxCell id="389" value="" style="endArrow=none;dashed=1;html=1;strokeColor=#0066CC;strokeWidth=3;fontSize=15;fontColor=#000000;entryX=0.25;entryY=1;entryDx=0;entryDy=0;movable=0;resizable=0;rotatable=0;deletable=0;editable=0;connectable=0;" parent="1" target="287" edge="1">
                    <mxGeometry width="50" height="50" relative="1" as="geometry">
                        <mxPoint x="1500" y="1635" as="sourcePoint"/>
                        <mxPoint x="1818" y="2078" as="targetPoint"/>
                        <Array as="points">
                            <mxPoint x="1730" y="1635"/>
                            <mxPoint x="1730" y="2074"/>
                        </Array>
                    </mxGeometry>
                </mxCell>
                <mxCell id="390" value="" style="rounded=0;whiteSpace=wrap;html=1;fillColor=#bac8d3;strokeColor=#23445d;movable=0;resizable=0;rotatable=0;deletable=0;editable=0;connectable=0;" parent="1" vertex="1">
                    <mxGeometry x="1235" y="1907" width="116" height="192" as="geometry"/>
                </mxCell>
                <mxCell id="391" value="&lt;b style=&quot;font-size: 15px;&quot;&gt;&lt;font style=&quot;font-size: 15px;&quot;&gt;CONTROL&lt;/font&gt;&lt;/b&gt;" style="text;html=1;strokeColor=none;fillColor=none;align=center;verticalAlign=middle;whiteSpace=wrap;rounded=0;fontColor=#303030;rotation=90;fontSize=15;movable=0;resizable=0;rotatable=0;deletable=0;editable=0;connectable=0;" parent="1" vertex="1">
                    <mxGeometry x="1227" y="1993" width="126" height="30" as="geometry"/>
                </mxCell>
                <mxCell id="392" value="" style="rounded=0;whiteSpace=wrap;html=1;fillColor=#bac8d3;strokeColor=#23445d;movable=0;resizable=0;rotatable=0;deletable=0;editable=0;connectable=0;" parent="1" vertex="1">
                    <mxGeometry x="1234" y="2191" width="116" height="192" as="geometry"/>
                </mxCell>
                <mxCell id="393" value="&lt;b&gt;STATUS&lt;/b&gt;" style="text;html=1;strokeColor=none;fillColor=none;align=center;verticalAlign=middle;whiteSpace=wrap;rounded=0;fontColor=#303030;rotation=90;fontSize=15;movable=0;resizable=0;rotatable=0;deletable=0;editable=0;connectable=0;" parent="1" vertex="1">
                    <mxGeometry x="1227" y="2268" width="126" height="30" as="geometry"/>
                </mxCell>
                <mxCell id="394" value="" style="endArrow=none;dashed=1;html=1;fontSize=15;strokeColor=#3B1FF0;strokeWidth=3;movable=0;resizable=0;rotatable=0;deletable=0;editable=0;connectable=0;" parent="1" edge="1">
                    <mxGeometry width="50" height="50" relative="1" as="geometry">
                        <mxPoint x="888" y="2052" as="sourcePoint"/>
                        <mxPoint x="1232" y="2291" as="targetPoint"/>
                        <Array as="points">
                            <mxPoint x="941" y="2052"/>
                            <mxPoint x="941" y="2291"/>
                        </Array>
                    </mxGeometry>
                </mxCell>
                <mxCell id="405" value="TRDY" style="text;html=1;strokeColor=none;fillColor=none;align=center;verticalAlign=middle;whiteSpace=wrap;rounded=0;fontColor=#303030;movable=0;resizable=0;rotatable=0;deletable=0;editable=0;connectable=0;" parent="1" vertex="1">
                    <mxGeometry x="1420" y="2170" width="60" height="30" as="geometry"/>
                </mxCell>
                <mxCell id="406" value="" style="endArrow=classic;html=1;strokeColor=#1C1C1C;strokeWidth=2;exitX=0.877;exitY=1.023;exitDx=0;exitDy=0;exitPerimeter=0;movable=0;resizable=0;rotatable=0;deletable=0;editable=0;connectable=0;" parent="1" source="410" edge="1">
                    <mxGeometry width="50" height="50" relative="1" as="geometry">
                        <mxPoint x="1508" y="2250" as="sourcePoint"/>
                        <mxPoint x="1352" y="2250" as="targetPoint"/>
                    </mxGeometry>
                </mxCell>
                <mxCell id="407" value="TE" style="text;html=1;strokeColor=none;fillColor=none;align=center;verticalAlign=middle;whiteSpace=wrap;rounded=0;fontColor=#303030;movable=0;resizable=0;rotatable=0;deletable=0;editable=0;connectable=0;" parent="1" vertex="1">
                    <mxGeometry x="1330" y="2260" width="70" height="30" as="geometry"/>
                </mxCell>
                <mxCell id="408" value="" style="endArrow=classic;html=1;strokeColor=#1C1C1C;strokeWidth=2;entryX=1;entryY=1;entryDx=0;entryDy=0;exitX=0.997;exitY=0.625;exitDx=0;exitDy=0;exitPerimeter=0;movable=0;resizable=0;rotatable=0;deletable=0;editable=0;connectable=0;" parent="1" edge="1">
                    <mxGeometry width="50" height="50" relative="1" as="geometry">
                        <mxPoint x="1350" y="2290" as="sourcePoint"/>
                        <mxPoint x="1500.7799999999997" y="2291.25" as="targetPoint"/>
                        <Array as="points"/>
                    </mxGeometry>
                </mxCell>
                <mxCell id="409" value="" style="endArrow=classic;html=1;strokeColor=#1C1C1C;strokeWidth=2;entryX=1;entryY=1;entryDx=0;entryDy=0;exitX=0.997;exitY=0.625;exitDx=0;exitDy=0;exitPerimeter=0;movable=0;resizable=0;rotatable=0;deletable=0;editable=0;connectable=0;" parent="1" edge="1">
                    <mxGeometry width="50" height="50" relative="1" as="geometry">
                        <mxPoint x="1350" y="2330" as="sourcePoint"/>
                        <mxPoint x="1500.7799999999997" y="2331.25" as="targetPoint"/>
                        <Array as="points"/>
                    </mxGeometry>
                </mxCell>
                <mxCell id="410" value="TOE" style="text;html=1;strokeColor=none;fillColor=none;align=center;verticalAlign=middle;whiteSpace=wrap;rounded=0;fontColor=#303030;movable=0;resizable=0;rotatable=0;deletable=0;editable=0;connectable=0;" parent="1" vertex="1">
                    <mxGeometry x="1420" y="2220" width="70" height="30" as="geometry"/>
                </mxCell>
                <mxCell id="411" value="CLR" style="text;html=1;strokeColor=none;fillColor=none;align=center;verticalAlign=middle;whiteSpace=wrap;rounded=0;fontColor=#303030;movable=0;resizable=0;rotatable=0;deletable=0;editable=0;connectable=0;" parent="1" vertex="1">
                    <mxGeometry x="1340" y="2300" width="60" height="30" as="geometry"/>
                </mxCell>
                <mxCell id="412" value="" style="endArrow=classic;html=1;strokeColor=#1C1C1C;strokeWidth=2;entryX=1;entryY=1;entryDx=0;entryDy=0;exitX=0.997;exitY=0.625;exitDx=0;exitDy=0;exitPerimeter=0;movable=0;resizable=0;rotatable=0;deletable=0;editable=0;connectable=0;" parent="1" edge="1">
                    <mxGeometry width="50" height="50" relative="1" as="geometry">
                        <mxPoint x="1350" y="2370" as="sourcePoint"/>
                        <mxPoint x="1500.7799999999997" y="2371.25" as="targetPoint"/>
                        <Array as="points">
                            <mxPoint x="1430" y="2370"/>
                        </Array>
                    </mxGeometry>
                </mxCell>
                <mxCell id="413" value="WRITE" style="text;html=1;strokeColor=none;fillColor=none;align=center;verticalAlign=middle;whiteSpace=wrap;rounded=0;fontColor=#303030;movable=0;resizable=0;rotatable=0;deletable=0;editable=0;connectable=0;" parent="1" vertex="1">
                    <mxGeometry x="1350" y="2340" width="60" height="30" as="geometry"/>
                </mxCell>
                <mxCell id="414" value="" style="endArrow=classic;html=1;strokeColor=#1C1C1C;strokeWidth=2;entryX=1.031;entryY=0.102;entryDx=0;entryDy=0;entryPerimeter=0;movable=0;resizable=0;rotatable=0;deletable=0;editable=0;connectable=0;" parent="1" target="392" edge="1">
                    <mxGeometry width="50" height="50" relative="1" as="geometry">
                        <mxPoint x="1480" y="2210" as="sourcePoint"/>
                        <mxPoint x="1500" y="2210" as="targetPoint"/>
                    </mxGeometry>
                </mxCell>
                <mxCell id="416" value="" style="endArrow=classic;html=1;strokeColor=#1C1C1C;strokeWidth=2;exitX=1;exitY=0.254;exitDx=0;exitDy=0;exitPerimeter=0;movable=0;resizable=0;rotatable=0;deletable=0;editable=0;connectable=0;" parent="1" edge="1">
                    <mxGeometry width="50" height="50" relative="1" as="geometry">
                        <mxPoint x="1080" y="2080" as="sourcePoint"/>
                        <mxPoint x="1236" y="2080" as="targetPoint"/>
                    </mxGeometry>
                </mxCell>
                <mxCell id="417" value="" style="endArrow=none;dashed=1;html=1;strokeColor=#0066CC;strokeWidth=3;fontSize=15;fontColor=#000000;entryX=0;entryY=1;entryDx=0;entryDy=0;movable=0;resizable=0;rotatable=0;deletable=0;editable=0;connectable=0;" parent="1" target="299" edge="1">
                    <mxGeometry width="50" height="50" relative="1" as="geometry">
                        <mxPoint x="1480" y="2210" as="sourcePoint"/>
                        <mxPoint x="1854.3979933110372" y="2289" as="targetPoint"/>
                        <Array as="points">
                            <mxPoint x="1780" y="2210"/>
                            <mxPoint x="1780" y="2160"/>
                            <mxPoint x="1780" y="2114"/>
                        </Array>
                    </mxGeometry>
                </mxCell>
                <mxCell id="418" value="" style="endArrow=classic;html=1;strokeColor=#1C1C1C;strokeWidth=2;entryX=1;entryY=1;entryDx=0;entryDy=0;exitX=0.997;exitY=0.625;exitDx=0;exitDy=0;exitPerimeter=0;movable=0;resizable=0;rotatable=0;deletable=0;editable=0;connectable=0;" parent="1" edge="1">
                    <mxGeometry width="50" height="50" relative="1" as="geometry">
                        <mxPoint x="1350" y="2040" as="sourcePoint"/>
                        <mxPoint x="1500.7799999999997" y="2041.25" as="targetPoint"/>
                        <Array as="points"/>
                    </mxGeometry>
                </mxCell>
                <mxCell id="419" value="" style="endArrow=none;dashed=1;html=1;strokeColor=#0066CC;strokeWidth=3;fontSize=15;fontColor=#000000;exitX=0;exitY=1;exitDx=0;exitDy=0;movable=0;resizable=0;rotatable=0;deletable=0;editable=0;connectable=0;" parent="1" source="174" edge="1">
                    <mxGeometry width="50" height="50" relative="1" as="geometry">
                        <mxPoint x="1520" y="1655" as="sourcePoint"/>
                        <mxPoint x="1780" y="2120" as="targetPoint"/>
                        <Array as="points">
                            <mxPoint x="1780" y="1663"/>
                            <mxPoint x="1780" y="2120"/>
                        </Array>
                    </mxGeometry>
                </mxCell>
                <mxCell id="420" value="" style="endArrow=classic;html=1;strokeColor=#1C1C1C;strokeWidth=2;entryX=1;entryY=1;entryDx=0;entryDy=0;exitX=0.997;exitY=0.625;exitDx=0;exitDy=0;exitPerimeter=0;movable=0;resizable=0;rotatable=0;deletable=0;editable=0;connectable=0;" parent="1" edge="1">
                    <mxGeometry width="50" height="50" relative="1" as="geometry">
                        <mxPoint x="1350" y="2000" as="sourcePoint"/>
                        <mxPoint x="1500.7799999999997" y="2001.25" as="targetPoint"/>
                        <Array as="points"/>
                    </mxGeometry>
                </mxCell>
                <mxCell id="77" value="&lt;span style=&quot;font-size: 28px;&quot;&gt;&lt;font color=&quot;#000000&quot;&gt;SENDER&lt;/font&gt;&lt;/span&gt;" style="rounded=0;whiteSpace=wrap;html=1;fillColor=#ffff88;strokeColor=#36393d;movable=0;resizable=0;rotatable=0;deletable=0;editable=0;connectable=0;" parent="1" vertex="1">
                    <mxGeometry x="2023" y="1398" width="220" height="350" as="geometry"/>
                </mxCell>
                <mxCell id="114" value="CLK" style="text;html=1;strokeColor=none;fillColor=none;align=center;verticalAlign=middle;whiteSpace=wrap;rounded=0;fontColor=#303030;movable=0;resizable=0;rotatable=0;deletable=0;editable=0;connectable=0;" parent="1" vertex="1">
                    <mxGeometry x="1873" y="1403" width="60" height="30" as="geometry"/>
                </mxCell>
                <mxCell id="123" value="EMTY_STATE" style="text;html=1;strokeColor=none;fillColor=none;align=center;verticalAlign=middle;whiteSpace=wrap;rounded=0;fontColor=#303030;movable=0;resizable=0;rotatable=0;deletable=0;editable=0;connectable=0;" parent="1" vertex="1">
                    <mxGeometry x="1883" y="1683" width="60" height="30" as="geometry"/>
                </mxCell>
                <mxCell id="174" value="FULL_STATE" style="text;html=1;strokeColor=none;fillColor=none;align=center;verticalAlign=middle;whiteSpace=wrap;rounded=0;fontColor=#303030;movable=0;resizable=0;rotatable=0;deletable=0;editable=0;connectable=0;" parent="1" vertex="1">
                    <mxGeometry x="1873" y="1633" width="70" height="30" as="geometry"/>
                </mxCell>
                <mxCell id="193" value="MOSI" style="text;html=1;strokeColor=none;fillColor=none;align=center;verticalAlign=middle;whiteSpace=wrap;rounded=0;fontColor=#303030;movable=0;resizable=0;rotatable=0;deletable=0;editable=0;connectable=0;" parent="1" vertex="1">
                    <mxGeometry x="2264" y="1546" width="60" height="30" as="geometry"/>
                </mxCell>
                <mxCell id="194" value="" style="endArrow=classic;html=1;strokeColor=#1C1C1C;strokeWidth=2;exitX=1;exitY=0.254;exitDx=0;exitDy=0;exitPerimeter=0;movable=0;resizable=0;rotatable=0;deletable=0;editable=0;connectable=0;" parent="1" edge="1">
                    <mxGeometry width="50" height="50" relative="1" as="geometry">
                        <mxPoint x="1873" y="1482.9999999999998" as="sourcePoint"/>
                        <mxPoint x="2023" y="1483" as="targetPoint"/>
                    </mxGeometry>
                </mxCell>
                <mxCell id="221" value="TE" style="text;html=1;strokeColor=none;fillColor=none;align=center;verticalAlign=middle;whiteSpace=wrap;rounded=0;fontColor=#303030;movable=0;resizable=0;rotatable=0;deletable=0;editable=0;connectable=0;" parent="1" vertex="1">
                    <mxGeometry x="1853" y="1493" width="70" height="30" as="geometry"/>
                </mxCell>
                <mxCell id="222" value="" style="endArrow=classic;html=1;strokeColor=#1C1C1C;strokeWidth=2;entryX=1;entryY=1;entryDx=0;entryDy=0;exitX=0.997;exitY=0.625;exitDx=0;exitDy=0;exitPerimeter=0;movable=0;resizable=0;rotatable=0;deletable=0;editable=0;connectable=0;" parent="1" edge="1">
                    <mxGeometry width="50" height="50" relative="1" as="geometry">
                        <mxPoint x="1872.9999999999998" y="1523" as="sourcePoint"/>
                        <mxPoint x="2023.78" y="1524.25" as="targetPoint"/>
                        <Array as="points"/>
                    </mxGeometry>
                </mxCell>
                <mxCell id="240" value="" style="endArrow=classic;html=1;strokeColor=#1C1C1C;strokeWidth=2;entryX=1;entryY=1;entryDx=0;entryDy=0;exitX=0.997;exitY=0.625;exitDx=0;exitDy=0;exitPerimeter=0;movable=0;resizable=0;rotatable=0;deletable=0;editable=0;connectable=0;" parent="1" edge="1">
                    <mxGeometry width="50" height="50" relative="1" as="geometry">
                        <mxPoint x="1872.9999999999998" y="1573" as="sourcePoint"/>
                        <mxPoint x="2023.78" y="1574.25" as="targetPoint"/>
                        <Array as="points"/>
                    </mxGeometry>
                </mxCell>
                <mxCell id="250" value="[7:0] DATA" style="text;html=1;strokeColor=none;fillColor=none;align=center;verticalAlign=middle;whiteSpace=wrap;rounded=0;fontColor=#303030;movable=0;resizable=0;rotatable=0;deletable=0;editable=0;connectable=0;" parent="1" vertex="1">
                    <mxGeometry x="1873" y="1453" width="70" height="30" as="geometry"/>
                </mxCell>
                <mxCell id="244" value="CLR" style="text;html=1;strokeColor=none;fillColor=none;align=center;verticalAlign=middle;whiteSpace=wrap;rounded=0;fontColor=#303030;movable=0;resizable=0;rotatable=0;deletable=0;editable=0;connectable=0;" parent="1" vertex="1">
                    <mxGeometry x="1863" y="1543" width="60" height="30" as="geometry"/>
                </mxCell>
                <mxCell id="255" value="" style="endArrow=classic;html=1;strokeColor=#1C1C1C;strokeWidth=2;entryX=1;entryY=1;entryDx=0;entryDy=0;exitX=0.997;exitY=0.625;exitDx=0;exitDy=0;exitPerimeter=0;movable=0;resizable=0;rotatable=0;deletable=0;editable=0;connectable=0;" parent="1" edge="1">
                    <mxGeometry width="50" height="50" relative="1" as="geometry">
                        <mxPoint x="1873" y="1613" as="sourcePoint"/>
                        <mxPoint x="2023.7799999999997" y="1614.25" as="targetPoint"/>
                        <Array as="points">
                            <mxPoint x="1953" y="1613"/>
                        </Array>
                    </mxGeometry>
                </mxCell>
                <mxCell id="256" value="WRITE" style="text;html=1;strokeColor=none;fillColor=none;align=center;verticalAlign=middle;whiteSpace=wrap;rounded=0;fontColor=#303030;movable=0;resizable=0;rotatable=0;deletable=0;editable=0;connectable=0;" parent="1" vertex="1">
                    <mxGeometry x="1873" y="1583" width="60" height="30" as="geometry"/>
                </mxCell>
                <mxCell id="267" value="" style="endArrow=classic;html=1;strokeColor=#1C1C1C;strokeWidth=2;exitX=1;exitY=0.254;exitDx=0;exitDy=0;exitPerimeter=0;movable=0;resizable=0;rotatable=0;deletable=0;editable=0;connectable=0;" parent="1" edge="1">
                    <mxGeometry width="50" height="50" relative="1" as="geometry">
                        <mxPoint x="1873" y="1442.9999999999998" as="sourcePoint"/>
                        <mxPoint x="2023" y="1443" as="targetPoint"/>
                    </mxGeometry>
                </mxCell>
                <mxCell id="295" value="" style="endArrow=classic;html=1;strokeColor=#1C1C1C;strokeWidth=2;exitX=1;exitY=0.5;exitDx=0;exitDy=0;movable=0;resizable=0;rotatable=0;deletable=0;editable=0;connectable=0;" parent="1" edge="1">
                    <mxGeometry width="50" height="50" relative="1" as="geometry">
                        <mxPoint x="2243" y="1572" as="sourcePoint"/>
                        <mxPoint x="2327" y="1572" as="targetPoint"/>
                    </mxGeometry>
                </mxCell>
                <mxCell id="308" value="" style="endArrow=classic;html=1;strokeColor=#1C1C1C;strokeWidth=2;movable=0;resizable=0;rotatable=0;deletable=0;editable=0;connectable=0;entryX=0;entryY=1;entryDx=0;entryDy=0;" parent="1" target="174" edge="1">
                    <mxGeometry width="50" height="50" relative="1" as="geometry">
                        <mxPoint x="2024" y="1663" as="sourcePoint"/>
                        <mxPoint x="1883" y="1663" as="targetPoint"/>
                    </mxGeometry>
                </mxCell>
                <mxCell id="309" value="" style="endArrow=classic;html=1;strokeColor=#1C1C1C;strokeWidth=2;movable=0;resizable=0;rotatable=0;deletable=0;editable=0;connectable=0;entryX=0;entryY=1;entryDx=0;entryDy=0;" parent="1" edge="1">
                    <mxGeometry width="50" height="50" relative="1" as="geometry">
                        <mxPoint x="2024" y="1713" as="sourcePoint"/>
                        <mxPoint x="1873" y="1713" as="targetPoint"/>
                    </mxGeometry>
                </mxCell>
                <mxCell id="425" value="" style="group;movable=0;resizable=0;rotatable=0;deletable=0;editable=0;connectable=0;" parent="1" vertex="1" connectable="0">
                    <mxGeometry x="1796" y="1431" width="72.69" height="24.39" as="geometry"/>
                </mxCell>
                <mxCell id="422" value="" style="shape=offPageConnector;whiteSpace=wrap;html=1;fontSize=15;fontColor=#000000;fillColor=#FFF2F7;rotation=-90;strokeColor=#007FFF;strokeWidth=1;size=0.18854181942611523;movable=0;resizable=0;rotatable=0;deletable=0;editable=0;connectable=0;" parent="425" vertex="1">
                    <mxGeometry x="26.4" y="-21.9" width="24.39" height="68.19" as="geometry"/>
                </mxCell>
                <mxCell id="423" value="CLK" style="text;html=1;strokeColor=none;fillColor=none;align=center;verticalAlign=middle;whiteSpace=wrap;rounded=0;strokeWidth=1;fontSize=15;fontColor=#000000;movable=0;resizable=0;rotatable=0;deletable=0;editable=0;connectable=0;" parent="425" vertex="1">
                    <mxGeometry y="1.9942857142857164" width="60" height="19.714285714285715" as="geometry"/>
                </mxCell>
                <mxCell id="429" value="" style="group;rotation=-180;movable=0;resizable=0;rotatable=0;deletable=0;editable=0;connectable=0;" parent="1" vertex="1" connectable="0">
                    <mxGeometry x="893" y="1180" width="72.69" height="24.39" as="geometry"/>
                </mxCell>
                <mxCell id="430" value="" style="shape=offPageConnector;whiteSpace=wrap;html=1;fontSize=15;fontColor=#000000;fillColor=#FFF2F7;rotation=-270;strokeColor=#007FFF;strokeWidth=1;size=0.18854181942611523;movable=0;resizable=0;rotatable=0;deletable=0;editable=0;connectable=0;" parent="429" vertex="1">
                    <mxGeometry x="22" y="-22" width="24.39" height="68.19" as="geometry"/>
                </mxCell>
                <mxCell id="431" value="CLK" style="text;html=1;strokeColor=none;fillColor=none;align=center;verticalAlign=middle;whiteSpace=wrap;rounded=0;strokeWidth=1;fontSize=15;fontColor=#000000;rotation=0;movable=0;resizable=0;rotatable=0;deletable=0;editable=0;connectable=0;" parent="429" vertex="1">
                    <mxGeometry x="9" y="2" width="60" height="19.714285714285715" as="geometry"/>
                </mxCell>
                <mxCell id="432" value="" style="group;fillColor=none;fontColor=#FF9999;" parent="1" vertex="1" connectable="0">
                    <mxGeometry x="1145" y="471.9" width="72.69" height="24.39" as="geometry"/>
                </mxCell>
                <mxCell id="433" value="" style="shape=offPageConnector;whiteSpace=wrap;html=1;fontSize=15;fontColor=#000000;fillColor=#FF6666;rotation=-90;strokeColor=#CC0000;strokeWidth=1;size=0.18854181942611523;" parent="432" vertex="1">
                    <mxGeometry x="26.4" y="-21.9" width="24.39" height="68.19" as="geometry"/>
                </mxCell>
                <mxCell id="434" value="&lt;font color=&quot;#ffffff&quot;&gt;HIGH&lt;/font&gt;" style="text;html=1;strokeColor=none;fillColor=none;align=center;verticalAlign=middle;whiteSpace=wrap;rounded=0;strokeWidth=1;fontSize=15;fontColor=#000000;" parent="432" vertex="1">
                    <mxGeometry y="-216" width="60" height="217.99" as="geometry"/>
                </mxCell>
                <mxCell id="435" value="" style="group;fillColor=none;fontColor=#FF9999;" parent="1" vertex="1" connectable="0">
                    <mxGeometry x="1140" y="519.8000000000001" width="72.69" height="24.39" as="geometry"/>
                </mxCell>
                <mxCell id="436" value="" style="shape=offPageConnector;whiteSpace=wrap;html=1;fontSize=15;fontColor=#000000;fillColor=#007FFF;rotation=-90;strokeColor=#0000CC;strokeWidth=1;size=0.18854181942611523;" parent="435" vertex="1">
                    <mxGeometry x="26.4" y="-21.9" width="24.39" height="68.19" as="geometry"/>
                </mxCell>
                <mxCell id="437" value="&lt;font color=&quot;#ffffff&quot;&gt;LOW&lt;/font&gt;" style="text;html=1;strokeColor=none;fillColor=none;align=center;verticalAlign=middle;whiteSpace=wrap;rounded=0;strokeWidth=1;fontSize=15;fontColor=#000000;" parent="435" vertex="1">
                    <mxGeometry y="1.9942857142857164" width="60" height="19.714285714285715" as="geometry"/>
                </mxCell>
                <mxCell id="441" value="" style="group;fillColor=none;fontColor=#FF9999;movable=0;resizable=0;rotatable=0;deletable=0;editable=0;connectable=0;" parent="1" vertex="1" connectable="0">
                    <mxGeometry x="1020" y="1155" width="72.69" height="24.39" as="geometry"/>
                </mxCell>
                <mxCell id="442" value="" style="shape=offPageConnector;whiteSpace=wrap;html=1;fontSize=15;fontColor=#000000;fillColor=#007FFF;rotation=-90;strokeColor=#0000CC;strokeWidth=1;size=0.18854181942611523;movable=0;resizable=0;rotatable=0;deletable=0;editable=0;connectable=0;" parent="441" vertex="1">
                    <mxGeometry x="26.4" y="-21.9" width="24.39" height="68.19" as="geometry"/>
                </mxCell>
                <mxCell id="443" value="&lt;font color=&quot;#ffffff&quot;&gt;LOW&lt;/font&gt;" style="text;html=1;strokeColor=none;fillColor=none;align=center;verticalAlign=middle;whiteSpace=wrap;rounded=0;strokeWidth=1;fontSize=15;fontColor=#000000;movable=0;resizable=0;rotatable=0;deletable=0;editable=0;connectable=0;" parent="441" vertex="1">
                    <mxGeometry y="1.9942857142857164" width="60" height="19.714285714285715" as="geometry"/>
                </mxCell>
                <mxCell id="444" value="" style="group;rotation=0;movable=0;resizable=0;rotatable=0;deletable=0;editable=0;connectable=0;" parent="1" vertex="1" connectable="0">
                    <mxGeometry x="1020" y="1594" width="72.69" height="24.39" as="geometry"/>
                </mxCell>
                <mxCell id="445" value="" style="shape=offPageConnector;whiteSpace=wrap;html=1;fontSize=15;fontColor=#000000;fillColor=#E6E6E6;rotation=-90;strokeColor=#666666;strokeWidth=1;size=0.18854181942611523;movable=0;resizable=0;rotatable=0;deletable=0;editable=0;connectable=0;" parent="444" vertex="1">
                    <mxGeometry x="26" y="-22" width="24.39" height="68.19" as="geometry"/>
                </mxCell>
                <mxCell id="446" value="CLR" style="text;html=1;strokeColor=none;fillColor=none;align=center;verticalAlign=middle;whiteSpace=wrap;rounded=0;strokeWidth=1;fontSize=15;fontColor=#000000;rotation=0;movable=0;resizable=0;rotatable=0;deletable=0;editable=0;connectable=0;" parent="444" vertex="1">
                    <mxGeometry x="2" y="2" width="60" height="19.714285714285715" as="geometry"/>
                </mxCell>
                <mxCell id="454" value="" style="group;fillColor=none;fontColor=#FF9999;" parent="1" connectable="0" vertex="1">
                    <mxGeometry x="1122" y="784" width="72.69" height="24.39" as="geometry"/>
                </mxCell>
                <mxCell id="455" value="" style="shape=offPageConnector;whiteSpace=wrap;html=1;fontSize=15;fontColor=#000000;fillColor=#FF6666;rotation=-90;strokeColor=#CC0000;strokeWidth=1;size=0.18854181942611523;" parent="454" vertex="1">
                    <mxGeometry x="26.4" y="-21.9" width="24.39" height="68.19" as="geometry"/>
                </mxCell>
                <mxCell id="456" value="&lt;font color=&quot;#ffffff&quot;&gt;HIGH&lt;/font&gt;" style="text;html=1;strokeColor=none;fillColor=none;align=center;verticalAlign=middle;whiteSpace=wrap;rounded=0;strokeWidth=1;fontSize=15;fontColor=#000000;" parent="454" vertex="1">
                    <mxGeometry y="1.9942857142857164" width="60" height="19.714285714285715" as="geometry"/>
                </mxCell>
                <mxCell id="472" value="TE" style="text;html=1;strokeColor=none;fillColor=none;align=center;verticalAlign=middle;whiteSpace=wrap;rounded=0;fontColor=#303030;movable=0;resizable=0;rotatable=0;deletable=0;editable=0;connectable=0;" parent="1" vertex="1">
                    <mxGeometry x="1430" y="1970" width="60" height="30" as="geometry"/>
                </mxCell>
                <mxCell id="473" value="WRITE" style="text;html=1;strokeColor=none;fillColor=none;align=center;verticalAlign=middle;whiteSpace=wrap;rounded=0;fontColor=#303030;movable=0;resizable=0;rotatable=0;deletable=0;editable=0;connectable=0;" parent="1" vertex="1">
                    <mxGeometry x="1150" y="2040" width="60" height="30" as="geometry"/>
                </mxCell>
                <mxCell id="82" value="&lt;font style=&quot;font-size: 36px;&quot;&gt;receiver&lt;/font&gt;" style="rounded=0;whiteSpace=wrap;html=1;fillColor=#cdeb8b;strokeColor=#36393d;movable=0;resizable=0;rotatable=0;deletable=0;editable=0;connectable=0;" parent="1" vertex="1">
                    <mxGeometry x="2030" y="1794" width="224.25" height="350" as="geometry"/>
                </mxCell>
                <mxCell id="129" value="" style="endArrow=classic;html=1;strokeColor=#1C1C1C;strokeWidth=2;movable=0;resizable=0;rotatable=0;deletable=0;editable=0;connectable=0;" parent="1" edge="1">
                    <mxGeometry width="50" height="50" relative="1" as="geometry">
                        <mxPoint x="1859.5986622073578" y="1884" as="sourcePoint"/>
                        <mxPoint x="2030" y="1884" as="targetPoint"/>
                    </mxGeometry>
                </mxCell>
                <mxCell id="130" value="CLR" style="text;html=1;strokeColor=none;fillColor=none;align=center;verticalAlign=middle;whiteSpace=wrap;rounded=0;fontColor=#303030;movable=0;resizable=0;rotatable=0;deletable=0;editable=0;connectable=0;" parent="1" vertex="1">
                    <mxGeometry x="1830" y="1854" width="98.66220735785953" height="30" as="geometry"/>
                </mxCell>
                <mxCell id="220" value="" style="endArrow=classic;html=1;strokeColor=#1C1C1C;strokeWidth=2;entryX=-0.006;entryY=0.398;entryDx=0;entryDy=0;entryPerimeter=0;movable=0;resizable=0;rotatable=0;deletable=0;editable=0;connectable=0;" parent="1" target="82" edge="1">
                    <mxGeometry width="50" height="50" relative="1" as="geometry">
                        <mxPoint x="1859.5986622073578" y="1934" as="sourcePoint"/>
                        <mxPoint x="1998.71237458194" y="1934" as="targetPoint"/>
                    </mxGeometry>
                </mxCell>
                <mxCell id="241" value="" style="endArrow=classic;html=1;strokeColor=#1C1C1C;strokeWidth=2;movable=0;resizable=0;rotatable=0;deletable=0;editable=0;connectable=0;" parent="1" edge="1">
                    <mxGeometry width="50" height="50" relative="1" as="geometry">
                        <mxPoint x="1859.5986622073578" y="1984" as="sourcePoint"/>
                        <mxPoint x="2030" y="1984" as="targetPoint"/>
                    </mxGeometry>
                </mxCell>
                <mxCell id="242" value="RE" style="text;html=1;strokeColor=none;fillColor=none;align=center;verticalAlign=middle;whiteSpace=wrap;rounded=0;fontColor=#303030;movable=0;resizable=0;rotatable=0;deletable=0;editable=0;connectable=0;" parent="1" vertex="1">
                    <mxGeometry x="1830" y="1954" width="98.66220735785953" height="30" as="geometry"/>
                </mxCell>
                <mxCell id="226" value="READ" style="text;html=1;strokeColor=none;fillColor=none;align=center;verticalAlign=middle;whiteSpace=wrap;rounded=0;fontColor=#303030;movable=0;resizable=0;rotatable=0;deletable=0;editable=0;connectable=0;" parent="1" vertex="1">
                    <mxGeometry x="1839.8662207357859" y="1904" width="98.66220735785953" height="30" as="geometry"/>
                </mxCell>
                <mxCell id="258" value="MISO" style="text;html=1;strokeColor=none;fillColor=none;align=center;verticalAlign=middle;whiteSpace=wrap;rounded=0;fontColor=#303030;movable=0;resizable=0;rotatable=0;deletable=0;editable=0;connectable=0;" parent="1" vertex="1">
                    <mxGeometry x="2244.38127090301" y="1937" width="98.66220735785953" height="30" as="geometry"/>
                </mxCell>
                <mxCell id="271" value="" style="endArrow=classic;html=1;strokeColor=#1C1C1C;strokeWidth=2;movable=0;resizable=0;rotatable=0;deletable=0;editable=0;connectable=0;" parent="1" edge="1">
                    <mxGeometry width="50" height="50" relative="1" as="geometry">
                        <mxPoint x="2030" y="2074" as="sourcePoint"/>
                        <mxPoint x="1859.5986622073578" y="2074" as="targetPoint"/>
                    </mxGeometry>
                </mxCell>
                <mxCell id="287" value="[7:0] DATA" style="text;html=1;strokeColor=none;fillColor=none;align=center;verticalAlign=middle;whiteSpace=wrap;rounded=0;fontColor=#303030;movable=0;resizable=0;rotatable=0;deletable=0;editable=0;connectable=0;" parent="1" vertex="1">
                    <mxGeometry x="1849.732441471572" y="2044" width="98.66220735785953" height="30" as="geometry"/>
                </mxCell>
                <mxCell id="292" value="" style="endArrow=classic;html=1;strokeColor=#1C1C1C;strokeWidth=2;movable=0;resizable=0;rotatable=0;deletable=0;editable=0;connectable=0;" parent="1" edge="1">
                    <mxGeometry width="50" height="50" relative="1" as="geometry">
                        <mxPoint x="1859.5986622073578" y="1844" as="sourcePoint"/>
                        <mxPoint x="2030" y="1844" as="targetPoint"/>
                    </mxGeometry>
                </mxCell>
                <mxCell id="293" value="" style="endArrow=classic;html=1;strokeColor=#1C1C1C;strokeWidth=2;movable=0;resizable=0;rotatable=0;deletable=0;editable=0;connectable=0;" parent="1" edge="1">
                    <mxGeometry width="50" height="50" relative="1" as="geometry">
                        <mxPoint x="2030" y="2032" as="sourcePoint"/>
                        <mxPoint x="1859.5986622073578" y="2032" as="targetPoint"/>
                    </mxGeometry>
                </mxCell>
                <mxCell id="294" value="" style="endArrow=classic;html=1;strokeColor=#1C1C1C;strokeWidth=2;movable=0;resizable=0;rotatable=0;deletable=0;editable=0;connectable=0;" parent="1" edge="1">
                    <mxGeometry width="50" height="50" relative="1" as="geometry">
                        <mxPoint x="2308.511705685619" y="1961" as="sourcePoint"/>
                        <mxPoint x="2253.2608695652175" y="1960" as="targetPoint"/>
                    </mxGeometry>
                </mxCell>
                <mxCell id="296" value="CLK" style="text;html=1;strokeColor=none;fillColor=none;align=center;verticalAlign=middle;whiteSpace=wrap;rounded=0;fontColor=#303030;movable=0;resizable=0;rotatable=0;deletable=0;editable=0;connectable=0;" parent="1" vertex="1">
                    <mxGeometry x="1830" y="1814" width="98.66220735785953" height="30" as="geometry"/>
                </mxCell>
                <mxCell id="297" value="FULL_STATE" style="text;html=1;strokeColor=none;fillColor=none;align=center;verticalAlign=middle;whiteSpace=wrap;rounded=0;fontColor=#303030;movable=0;resizable=0;rotatable=0;deletable=0;editable=0;connectable=0;" parent="1" vertex="1">
                    <mxGeometry x="1859.5986622073578" y="2002" width="98.66220735785953" height="30" as="geometry"/>
                </mxCell>
                <mxCell id="299" value="EMTY_STATE" style="text;html=1;strokeColor=none;fillColor=none;align=center;verticalAlign=middle;whiteSpace=wrap;rounded=0;fontColor=#303030;movable=0;resizable=0;rotatable=0;deletable=0;editable=0;connectable=0;" parent="1" vertex="1">
                    <mxGeometry x="1859.5986622073578" y="2084" width="98.66220735785953" height="30" as="geometry"/>
                </mxCell>
                <mxCell id="304" value="" style="endArrow=classic;html=1;strokeColor=#1C1C1C;strokeWidth=2;movable=0;resizable=0;rotatable=0;deletable=0;editable=0;connectable=0;" parent="1" edge="1">
                    <mxGeometry width="50" height="50" relative="1" as="geometry">
                        <mxPoint x="2030" y="2114" as="sourcePoint"/>
                        <mxPoint x="1859.5986622073578" y="2114" as="targetPoint"/>
                    </mxGeometry>
                </mxCell>
                <mxCell id="327" value="" style="endArrow=none;dashed=1;html=1;fontSize=15;strokeColor=#3B1FF0;strokeWidth=3;" parent="1" edge="1">
                    <mxGeometry width="50" height="50" relative="1" as="geometry">
                        <mxPoint x="4503.745819397993" y="3654" as="sourcePoint"/>
                        <mxPoint x="4306.421404682274" y="4064" as="targetPoint"/>
                        <Array as="points">
                            <mxPoint x="4562.9431438127085" y="3204"/>
                            <mxPoint x="4375.484949832776" y="3654"/>
                            <mxPoint x="4188.026755852843" y="3734"/>
                            <mxPoint x="4375.484949832776" y="4064"/>
                        </Array>
                    </mxGeometry>
                </mxCell>
                <mxCell id="388" value="" style="endArrow=none;dashed=1;html=1;fontSize=15;strokeColor=#3B1FF0;strokeWidth=3;movable=0;resizable=0;rotatable=0;deletable=0;editable=0;connectable=0;" parent="1" edge="1">
                    <mxGeometry width="50" height="50" relative="1" as="geometry">
                        <mxPoint x="2305.551839464883" y="1962" as="sourcePoint"/>
                        <mxPoint x="2450" y="1230" as="targetPoint"/>
                        <Array as="points">
                            <mxPoint x="2421.973244147157" y="1962"/>
                            <mxPoint x="2422" y="1230"/>
                        </Array>
                    </mxGeometry>
                </mxCell>
                <mxCell id="466" value="" style="group;movable=0;resizable=0;rotatable=0;deletable=0;editable=0;connectable=0;" parent="1" vertex="1" connectable="0">
                    <mxGeometry x="1796" y="1831" width="72.69" height="24.39" as="geometry"/>
                </mxCell>
                <mxCell id="467" value="" style="shape=offPageConnector;whiteSpace=wrap;html=1;fontSize=15;fontColor=#000000;fillColor=#FFF2F7;rotation=-90;strokeColor=#007FFF;strokeWidth=1;size=0.18854181942611523;movable=0;resizable=0;rotatable=0;deletable=0;editable=0;connectable=0;" parent="466" vertex="1">
                    <mxGeometry x="26.4" y="-21.9" width="24.39" height="68.19" as="geometry"/>
                </mxCell>
                <mxCell id="468" value="CLK" style="text;html=1;strokeColor=none;fillColor=none;align=center;verticalAlign=middle;whiteSpace=wrap;rounded=0;strokeWidth=1;fontSize=15;fontColor=#000000;movable=0;resizable=0;rotatable=0;deletable=0;editable=0;connectable=0;" parent="466" vertex="1">
                    <mxGeometry y="1.9942857142857164" width="60" height="19.714285714285715" as="geometry"/>
                </mxCell>
                <mxCell id="458" value="" style="group;rotation=0;movable=0;resizable=0;rotatable=0;deletable=0;editable=0;connectable=0;" parent="1" connectable="0" vertex="1">
                    <mxGeometry x="1795" y="1872" width="72.69" height="24.39" as="geometry"/>
                </mxCell>
                <mxCell id="459" value="" style="shape=offPageConnector;whiteSpace=wrap;html=1;fontSize=15;fontColor=#000000;fillColor=#E6E6E6;rotation=-90;strokeColor=#666666;strokeWidth=1;size=0.18854181942611523;movable=0;resizable=0;rotatable=0;deletable=0;editable=0;connectable=0;" parent="458" vertex="1">
                    <mxGeometry x="26" y="-22" width="24.39" height="68.19" as="geometry"/>
                </mxCell>
                <mxCell id="460" value="CLR" style="text;html=1;strokeColor=none;fillColor=none;align=center;verticalAlign=middle;whiteSpace=wrap;rounded=0;strokeWidth=1;fontSize=15;fontColor=#000000;rotation=0;movable=0;resizable=0;rotatable=0;deletable=0;editable=0;connectable=0;" parent="458" vertex="1">
                    <mxGeometry x="2" y="2" width="60" height="19.714285714285715" as="geometry"/>
                </mxCell>
                <mxCell id="457" value="READ" style="shape=offPageConnector;whiteSpace=wrap;html=1;fontSize=15;fillColor=#f5f5f5;rotation=0;strokeWidth=1;size=0.18854181942611523;fontColor=#333333;strokeColor=#666666;direction=north;movable=0;resizable=0;rotatable=0;deletable=0;editable=0;connectable=0;" parent="1" vertex="1">
                    <mxGeometry x="1790" y="1920" width="68.19" height="24.39" as="geometry"/>
                </mxCell>
                <mxCell id="481" value="" style="rounded=0;whiteSpace=wrap;html=1;strokeColor=#FF0080;strokeWidth=3;fontSize=15;fontColor=#FF9999;fillColor=none;dashed=1;movable=0;resizable=0;rotatable=0;deletable=0;editable=0;connectable=0;" parent="1" vertex="1">
                    <mxGeometry x="896" y="1033" width="1544" height="1410" as="geometry"/>
                </mxCell>
                <mxCell id="482" value="" style="group;fillColor=none;fontColor=#FF9999;" vertex="1" connectable="0" parent="1">
                    <mxGeometry x="1018" y="1556" width="72.69" height="24.39" as="geometry"/>
                </mxCell>
                <mxCell id="483" value="" style="shape=offPageConnector;whiteSpace=wrap;html=1;fontSize=15;fontColor=#000000;fillColor=#007FFF;rotation=-90;strokeColor=#0000CC;strokeWidth=1;size=0.18854181942611523;" vertex="1" parent="482">
                    <mxGeometry x="26.4" y="-21.9" width="24.39" height="68.19" as="geometry"/>
                </mxCell>
                <mxCell id="484" value="&lt;font color=&quot;#ffffff&quot;&gt;LOW&lt;/font&gt;" style="text;html=1;strokeColor=none;fillColor=none;align=center;verticalAlign=middle;whiteSpace=wrap;rounded=0;strokeWidth=1;fontSize=15;fontColor=#000000;" vertex="1" parent="482">
                    <mxGeometry y="1.9942857142857164" width="60" height="19.714285714285715" as="geometry"/>
                </mxCell>
            </root>
        </mxGraphModel>
    </diagram>
</mxfile>